<?xml version="1.0" encoding="UTF-8"?>
<svg id="_レイヤー_1" data-name="レイヤー_1" xmlns="http://www.w3.org/2000/svg" version="1.1" viewBox="0 0 1000 332">
  <!-- Generator: Adobe Illustrator 29.7.1, SVG Export Plug-In . SVG Version: 2.1.1 Build 8)  -->
  <defs>
    <style>
      .st0 {
        fill: #7299a7;
        stroke: #fff;
        stroke-linecap: round;
        stroke-linejoin: round;
        stroke-width: .5px;
      }
    </style>
  </defs>
  <g id="features">
    <path id="MY12" class="st0" d="M891.1,164h-7.9l-1.6-.3-.3-.3-2.4-2.1-.2-.6.3-.6.9-.6.9-.4.8-.2h.8l1.7.6h.8c0,.1.5.3.5.3l.5.6.6.9.4.5.4.2h.5c0,.1.6.2.6.2l2.2.7.2.4.3.7h0ZM786,164.5l-.2-.4-.2-.6v-.7c0,0-.2-1.1-.2-1.1v-.7c0,0,.3-.5.3-.5l1.4-1.8.2-.4.3-1v-.5c0,0,0-.5,0-.5l-.2-.6-.7-.8-.4-.4-.4-.3h-.4c0-.1-.7-.3-.7-.3h-.4c0-.1-.3-.3-.3-.3l-.3-.3-.2-.6v-.8c0,0,0-1.1,0-1.1v-.3l-.2-.5-.7-1.1-.2-.7-.2-3.5v-.4c0,0,.2-.3.2-.3l1.5-2.6v-.5c0,0,.2-.5.2-.5l.2-1.6v-.9c0,0,.3-.4.3-.4l.2-.3,1-1,.2-.4.2-.5.7-2.3v-.5c0,0,0-.5,0-.5l-1-4.4-.3-.5-.3-.3h-.6c0,0-.9,0-.9,0l-1.3.2h-2.2c0,0-4.3-.3-4.3-.3l1.2-1.1,1.5-1.9.5-.3h1c0,0,.9-.5.9-.5l.7-.6.4-.5.3-.7.3-1.9v-1.7c0,0,.2-.5.2-.5l.5-.9.4-.4.4-.3.2-.3-.3-.6-1.8.8h-1.7c0,0-1.6-.7-1.6-.7l-4.1-3.6v-.4c0,0,0-.4,0-.4v-.3l-.5-.2-.2.2-.9.7-.3-.5v-.7c0,0,.4-.7.4-.7l.3-1.5.4-.6.3-.5v-.4c0,0,.7-.5.7-.5l2.4-1.4.5-.9.6-.7,3.2-2.4,1.6-3.5,1-.9.6,1-1.6,3,1,1.4.2-.5.2-1.3.2-.5,1.6,1.4,1,.4,4.1.3h1.3c0,0,1.2-.5,1.2-.5l1.4-1.2,1.2-1.8,1-2.1.5-1.9.4-2,.2-.9.5-.8.7-.5,4.2-2.3.7-.8.3-1.1v-2.2c0,0,.4-.9.4-.9l2.9-4.6.6-2-.7-1.4-1,.4-.4-.6.5-.9,1.4-.4.8-.5,2.2-3.3,1-.9.6-.3h.7c0,0,.6,0,.6,0l.7.3h.6c0,0,.2-.4.2-.4l-.2-1.5-.6-.2-.8.5h-1.2c0,0,0-.2,0-.2l1.2-.6.8-.8.2-.2h.3c0,0,.9,0,.9,0l.5-.3h0v-.4l.4-1.5v-.3c0,0,.3-.4.3-.4l.5-.5,4.1-3.1.7-.7.8-.6.9-.4.7-.6.2-.9v-.9c0,0,.2-.9.2-.9l.4-.7.6-.3.8-.6,2.9-3.9.7-.6.4-.7.3-.8v-1.2c0,0,0-1.6,0-1.6v-.4c0,0,.3-.4.3-.4l.6-.8.2-.5v-1.7c0,0,0-.8,0-.8l1.4-.6.3-.8.5-1.8v-1.4c0,0,.5-.2.5-.2l.2-.2.5-.7.2-.6.4-.4.5-.3h.7c0,.1.5,1.2.5,1.2l1.9,1.3.3.5.6,3.3-.9-.5h-.5c0,0-.2.1-.2.1l-.3,1.4v.3l.5.5.8.2.6.4.3,1-.2,1.8-.5,1.3-1.5,2.2-.8,1.6-.7,2,.3,1.7,1.8.4,1-.5.7-.8.6-.9.4-.3.7-.3,2-2,1.5-1.1.3-.5.2-1.7.3-.2h.3l.3-.3.6-1.3,1.7-1.7.2-.7-.2-.9-1.1-2.1v-1c0,0,.4-.5.4-.5h.4c0,0,.4.1.4.1h.6c0,0,.4-.1.4-.1l.3-.3v-.3c0,0,0-.2,0-.2l-.4-.2v-.5c0,0,0-.5,0-.5l.2-.3h.5c0-.1.5,0,.5,0l.6.2h.3c0,0,.4-.2.4-.2l.7-.6h.3c0,.1.4.3.4.3l1.2.5h.3c0,0,.2.3.2.3l2.4,1.4.2.2.2.4v.8c0,0-.2,2.2-.2,2.2l-.2.5-.7.4-.2.8v.9c0,0,.4.8.4.8l1.7,2.2.2.8v2.9c0,0,.3.8.3.8l.6,1,.6.3h1.8l.7.2.7.5,1,1.2,1.1,1.1.8.6.8.2.7-.2.6-.5,1.1-1.8.7-.9h.4v.7c0,0,.2,1.3.2,1.3h0l1.1,1.1h-.2c0,0,0,.1,0,.1v.6h.2l.6.2h.2c0,0,.6.7.6.7l.5.2h.6c0,0,.6-.2.6-.2h.5c0,0,.5.2.5.2l1.1,1.2.5.8.5,1h.3v-.4c0,0,.4-.2.4-.2h.2c0,0,.3.3.3.3l.2.3v.3c0,0,0,.5,0,.5v.5l.2.4.4.8v.4c0,0-.1.4-.1.4l-.3.4-.2.4.5,1.3-.5,3.1-.3.7h-.7l-1.5-.2-.9.2-.8.6-1.3,1.2-.4.8.2.7,1,1.2.7,1.8.7.3.2.3v.5l.2.3v.4l-.2.6-.4.4h-.4c0,0-.4.3-.4.3v.6c0,0,.2.7.2.7l.6.2.7.3.3,1.1-.3.8-.6.6-1.6,1-5.9,2-1.1,1.2h.8c0,0,2.6-1.3,2.6-1.3l1.2-.3h3.3l3.1-.4,2.3.3h.8c0,0,.3-.6.3-.6l-.4-1.2.5-.3h.5l.5.2h.7c0,0,.8,0,.8,0l2.2-.5.5-.3.2-.6.7-.6,1.2-.8,1.5-2,.9-.4.2-.3h.3c0,0,.6,0,.6,0l1.6,1.6v.5c0,0,0,.5,0,.5v.4c0,0,.9.4.9.4v.6c0,0,0,.9,0,.9l.2,1.1,2,2.6.2.3v.3c0,0-1.3,1.8-1.3,1.8l-.7.4-1,.3h-1.1c0,0-.9-.3-.9-.3l-.7.3-2.9-.3-.8.3-.5.6v.5c0,0,.4.3.4.3l.2.3,1.3,3.7.4.3h.5c0,0,.6-.2.6-.2l.7-.2,1.8-.9.8-.2h.4c0,0,.3.5.3.5l.4.2h.4c0,0,.4-.3.4-.3h.5c0,0,.5,0,.5,0l.4.7.4.2.4-.2.4-.6v-.4l-.2-.5.3-.8.2-.3.3-.3v-.4c0,0-.3-.9-.3-.9v-.5c0,0,.8-.5.8-.5l2.1-.2,1.9-.9,1,.2,2.4,1.3h.2c0,0,.3,0,.3,0l.5-.6h.4c0,0,.4,0,.4,0l.5.2.3.2.9.2,4.7,2.8,1.6,1.3.7.4.8.4.7.4.2.6v.5c0,0-.5.2-.5.2l-.3.2-.2.2-.4,2.6-.3,1-.2,1,.3,1h.4l.4-1.2.3-.5.4-.4.2-.5v-1.2c0,0,.1-.5.1-.5l1.2-.9h1l.9.7,2.2,2.6.9.9.8.3,1.2.2.9.7.6.9.3,1.1.4-.3v-.2c0,0,.2-.3.2-.3v-.5l2.2,1.7.8.2,1,.5.8,1,.2.9-.9.5.5.4.8.3h.7l.6-.4v-.6c0,0-.2-.5-.2-.5v-.4c0,0,.5-.4.5-.4h1.2c0,0,2.1,1.2,2.1,1.2h1.4c0,0,3.7-1.6,3.7-1.6l1.1-.2.8.3.6.7,1.1,1.5,1,1,.5.6v.8c0,0,0,1,0,1l-.4,1.6v.8c0,0,.1,2.1.1,2.1v1.2c0,0-1.1.9-1.1.9l-2.3,2.5-1.8,1-8.5,3.1-8.6,2.5-1.7,1-1.1.5-1.1.3h-1c0,0-.7,0-.7,0l-1.5-.7-1.3-.2-.9-.3h-.6c0,0-.6.2-.6.2l-1.4,1.1-1,.6h-.4l-.6-.4-.3-.3-.8-1.5-1.6-1.8-1.5-.8-.9-.3-.4.3-.5-.2-1,.7-1.4,1.2-.4-.3-.2.2v.5c0,0,0,.6,0,.6l-1.8-.5-1.7,1-2.6,3-.8.5-.3.4-.2.5v.6c0,0,.3.2.3.2h.3c0,.1,1.2.8,1.2.8l.3.3.3.4.5,1.4,1.1,1.7,1.3,1.5,1.4,1.3,1.6,1.2.6.5.4.3.4.2h1.4c0,.1.4.2.4.2l.2.3.4.9.2.3.3.2.3.3.8.3v-.8c0,0,.8-.2.8-.2l.8.3.6.4.5.6v.6c0,0-.1.6-.1.6l-.5.6-.2.5.4.6.6.4.3.4.3.3.9-.5,1.3-1,.5.3,1.2.2.5.2-.2.6.5.9,1.8,2v.3c0,0-.3.5-.3.5l-.5.3h-.4c0-.1-.5-.3-.5-.3h-.7c0-.1.2.6.2.6l-.2.7-.5.6-.4.5-.7.5-.7.2h-1.8c0-.1-.8,0-.8,0l-1.5.4-.9.2h-2l-1.1-.2-.7-.5-.6.8-.3.2-4.2,1.2-3.8.4-1.1.3-6.1,3.1h-1c0,.1-2.9-.8-2.9-.8h-.8c0-.1-.5-.3-.5-.3l-1.8-1.7-.7-.4-.4-.2h-.4v-.2c0,0-.4-.9-.4-.9l-.2-.2h-.6c0-.1-1.5-.6-1.5-.6l-1.1-.3h-.5c0-.1-1-.8-1-.8l-.5-.8-.4-.9-.8-.9h-.7c0,.1-1,.7-1,.7l-.9.8-.4.5.2.4.9.6.2.5v1.9l.2.5.7.7v.5l-.2.6-.4.4-.9.7-.4.3-.2.4-.3.3v.4c0,0,.1.2.1.2l.8.8.3.4h-.5c0-.1-.4,0-.4,0l-1.9.8-.4-.4-.7-.3h-1.3c0,.1-.8.1-.8.1l-1.5-.3-1.3-.3-1.1-.7-2.6-2.8-3.8-1.9-1.7-1.2-.4-.5-.2-.4-.4-.3h-.7c0-.1-.5,0-.5,0l-.8.7-.4.2-8.5.2-2.6-.7h-2l-3.6.7-1.8-.4-1.7-1.2h-.8c0-.1-1.5,1.1-1.5,1.1l-.8.3h-.9l-1.2-.5-1.2.6h-.6l-2.1-3h-.5l-.3.5-1,1-.3.7v.5l.2.3v.3c0,0-.2.4-.2.4l-.9.2-.5-.2h-.5l-1.1,1.1-.5.2h-.5c0-.1-.4-.3-.4-.3l-1.2-2-.2-.6-.2-.2h-.3c0-.1-.3-.1-.3-.1h-.3l-1.3-1.2-1.1.2-1.3.7-1.4.3h-.6l-2.1-.6h-1c0-.1-.5-.1-.5-.1l-.5-.3-.4,1-.4.6-.4.4-.9.5-2.2,2.2-.6.3-.8-.3-.4-.5-.3-.8-.2-.7-.3-.4-.6-.3-1.1-.4h-1.9c0-.1-1-.4-1-.4l-.4-.6-.2-.8-.4-.4h-.6c0,.1-.6.7-.6.7l-.4,1.5v1.5l-.2,1.4-1.8,1.5v.6c0,0-.4.5-.4.5l-.6.2-.5-.3-.3-.4h-.3c0-.1-2,1.7-2,1.7l-.3.4-.3.3-1,.3-.4.4-.4,1.1h0ZM905.5,85l.7.2v.5c0,0-.1.4-.1.4l-.6.2h-.3c0,0-.8.4-.8.4h-1c0,0-.4-.4-.4-.4v-.3l.2-.4.5-.4h.6c0,0,1.2-.2,1.2-.2ZM929,148.4l1,.3.6.7-.2.7-1.1.2h-1.7l-.7.7h-.5v-1.3c0,0-.3-.2-.3-.2l-.6-.5-.2-.2v-.5c0,0,.1-.1.1-.1h1.2c0-.1,2.4.2,2.4.2h0ZM919,141.2l.6-.8h1.2l1.3.5,1,.5v.4h-.7l-.4.3-.2.6v.7c0,0-.8-.9-.8-.9h-.3c0-.1-.2,0-.2,0l-.2.5-.2.3-.3-.2-.7-.5-.8-.4-.7-.2h-.8c0-.1-.4-.5-.4-.5l-.2-.2-1.6-.2-3.2-1v-.3h3.7l.5-.2.3-.3.3-.3.3-.2.9.2.4.6.4.8.8.7h0ZM870.8,42.6l1.1,1.5.8,1.4-.2,1.4-1.7,1.5-1.2.3h-1.4l-1.5-.2-1.1-.4-.5-.3v-.4c0,0,0-.4,0-.4l.4-.3.5-.2h2.3c0,0,.8-.3.8-.3l.5-.4.2-.8-.4-.4h-1.7c0,0,0-.7,0-.7l.5-.6,1.9-.2.8-.5h0ZM849.2,15.1l.6.6.3,1.1v1.2c0,0-.6.6-.6.6l-.8-.8-.7.4-.3.8.5.9-4.4,1.1.2.4.4.3.3.3-.3.5-.4.2h-1.3l-.5-.2,2.2-4.2.7-.3,1.6-.4.6-.3s1.9-2.2,1.9-2.2ZM857,15.7l3.5-.6,1.1.3.5.8v1.1c0,0-.4,3.6-.4,3.6l-.5,1.4-.7.9-.8-.4-.9.3-2.7.5-.5.3-.3.3-1.2.5-.5.3-.3.6-.2.5-.2.4-.5.4-.4-1.1-.3-3.6.2-.7.2-.4v-2c0,0,.1-.5.1-.5l.3-.2.7-.2.4-.3,1.2-1.1,1-.7.6-.3h.6q0-.1,0,0Z"/>
    <path id="MY09" class="st0" d="M79.4,53.8v.7c0,0,0,0,0,0v.4l-.5,2.1v.2c0,0-.3.2-.3.2l-1.1.7-.5.4-5.1,5.8h0c0,0,0,.3,0,.3v.5c0,0-.3.6-.3.6l-.3.4-1.1-1.4-1-2-.8-2.2-.2-2-.2-.9.4-.7.4-1,.2-1.2v-.4c0,0-.2-.8-.2-.8v-.4l.3-.5.4-.4.3-.4v-.6c0,0-.4-1.1-.4-1.1v-.8c0,0,.2-1.9.2-1.9v-1c0,0,.2-.6.2-.6l.3-.4.7-.2.4.3h0c0,0,.2.4.2.4l.4.2h.7c0,0,.7-.5.7-.5h1l.5.2.3.3,1.7,5.2.5.9.9.8,1.4.7h0Z"/>
    <path id="MY02" class="st0" d="M71.1,66.2l.3-.4.2-.6v-.5c0,0,.2-.2.2-.2h0c0,0,5.1-5.9,5.1-5.9l.5-.4,1.1-.7.2-.2v-.2c0,0,.6-2.1.6-2.1v-.4h0c0,0,0-.8,0-.8l.4.2,1.1.3h.7c0,0,1.2-.1,1.2-.1l.7.2,1.5,1.1.8.4,2.9.8,1.6.7.8.2h.8c0,0,3-2.3,3-2.3h.8v.3c0,0,0,1.1,0,1.1l.2.4.4.2h.4c0,0,.5,0,.5,0h.5c0,0,1.1.7,1.1.7l.4.9v2.2c0,0,.2.5.2.5l.2.6.6.9v.4c0,0,0,.4,0,.4l-.2.4h0c0,0,0,.5,0,.5v1.3c0,0,.2.4.2.4l.4.7h.2l.2-.3.6-.2h.6c0,0,1.9.5,1.9.5l.9-.2,1.2-1.3.9-.2,1.5,1.2.8.3,2.1-.5.6.2.3.6v1c0,0,0,1.1,0,1.1l-.4.4-.6.3-.6.8v1c0,0,.7.7.7.7l.8.7.4.9-.3,1.8v2.7c0,0-.4,1.5-.4,1.5v.9c0,0-.4.8-.4.8l-.9.4-.9.2-.8.4-1.9,3.9-.3.5v.6c0,0,0,.5,0,.5l.2.4h-.6c0,0,0,.2,0,.2h0c0,0,.2.9.2.9h0c0,0,0,.3,0,.3l.2.3h0c0,0,.4.3.4.3h0c0,0,0,.2,0,.2v.2c0,0,0,.2,0,.2l-.6,2.7v.2c0,0-.2,0-.2,0l-.6.4-.2.3-.4.4-.4.4h0v.7c0,0,0,.2,0,.2h.2c0,0,0,.2,0,.2h.3c0,0,0,.2,0,.2h0v1.4c0,0,0,.4,0,.4h0c0,0,0,.7,0,.7l-.3.7-.3.5-.6.6h-.3c0,0-.3.2-.3.2l-.2-.2h0c0,0-.2,0-.2,0l-.2.2-.3.5-.2.3-.3.6-.2,1.8v1.2l-.3,1.3v.3c0,0-.3.3-.3.3v.3c0,0-.7.6-.7.6l-.3.2-.5.2-1.2.3-1.6.2-.3.3-.5.8v.5c0,0,0,.2,0,.2l-.2.2-.2.2-1.1.8-.2.2v.2c0,0-.5.7-.5.7l-.2.8h0c0,0,0,0,0,0v.3c0,0-3.4,2.9-3.4,2.9l-.2.4-.2.7h0c0,0,0,.2,0,.2l-.7.6-.7.8h0c0,0,0,.2,0,.2h-.5c0,0-.4,0-.4,0l-.3-.2-.5-.3-.5-.2h-.2c0,0-.2-.4-.2-.4l-.4-1.3,1.4.2h.9c0,0,0-.2,0-.2v-.2c0,0,.2-.2.2-.2v-.2l-.8-5.4-.8-9.6v-2.8c0,0,.2-.4.2-.4l.2-.5-.8-.4h-.8c0,0-6.7-.5-6.7-.5l-.2-.7-.3-4,.4.2h.6c0,0,.5,0,.5,0l.4-.3v-.4c0,0-.3-.3-.3-.3l-.4-.2-.2-.2.5-5.5-1.3-9.4-.3-.8-.7-.9-.6-1-.8-2.1-1.7-3-.5-1.9-.7-.7-1.6-1h0q0,0,0,0ZM52,67.1l.6-1.5,1.1-.4.6-.6.2.8-.4.4-.3.5v.9c0,0,0,.7,0,.7l.3.8-.2.7-.4.7-.5.2-.8-.6-.2-.8h-.4c0,0-.4-1-.4-1,0,0,.9-.8.9-.8ZM57.3,61.3l.5.8v.4c0,0,.2.4.2.4l-.5.2-.6.2-.4.5-.6.3-.2.7-.8-.5-.2-1.1h-.9l-.8.3-.8.9-.6.7h-.8l-.5.6-.6.3h-.4c0,0-.6-2.1-.6-2.1l.3-.8v-1.2c0,0-.9-.3-.9-.3l-1.2-.2h-.8l-.4-.6-.2-.8v-2l1.1.4.9-.4h1.5c0,0,.7.6.7.6l1.6.2.7-.2.7-.6.6-.8h.4c0,0,.7,0,.7,0l-.2-.4v-.3c0,0,.4,0,.4,0l.4.2.3,1,.4.7.5.5,1,.4v.4c0,0,.3.2.3.2l.4.3-.2.6s-.4.6-.4.6Z"/>
    <path id="MY03" class="st0" d="M179.6,85.1h-.1c0,0-1.7,2.2-1.7,2.2l-3.6,3.3-1.6,1.7-.2.6.6,2.6v.3c.1,0,.3.5.3.5v1c-.1,0-.1,2.5-.1,2.5v.2h-.1c0,0-.4.4-.4.4v.4l.3,2.8v1.2h-.2v.2c-.1,0,0,.2,0,.2l.8,1,1,.8.2.2v.5c.1,0,0,1.1,0,1.1l-.6,1.2v.2l-.2,1v2.7c-.1,0,0,.7,0,.7v.2c.1,0,0,.2,0,.2v.3l-.3.8v.4c.1,0,.4,0,.4,0l.6.2h.2l.2.2h.1c0,0,.2,0,.2,0h.4c0,0,.2.2.2.2l.2.2.3.2h.2l.6.8h.2c0,0,.2.3.2.3h.3c0,0,.2.2.2.2l.4.5.4.3h.1c0,0-.1.3-.1.3l-.2.3h-.1v.3h-.1v.3h-.5c0,0-.1.2-.1.2h-.1v.4l.5,2.2v.3h-.1c0,0-.1.2-.1.2h-.2c0,0-.1,0-.1,0v.2c-.1,0-.1,0-.1,0h0v.8c.1,0,.5,1.3.5,1.3v.7c.1,0,0,.4,0,.4v1.1l.2.2.5.2h.4c0-.1.1-.2.1-.2h.1c0-.1.2-.1.2-.1h.3l1.1.5,2.3,1.7h.6c0,.1.1.3.1.3v.2c.1,0,.2.7.2.7v.4c.1,0,.3.3.3.3l.2.2v.2c.1,0,.5,1,.5,1v.3l-.2.7h-.9l-.4-.2-.5-.3h-.1c0-.1-.2-.1-.2-.1h-.2c0,.1-.2.3-.2.3v.2c-.1,0-.1.2-.1.2v.4h-.1c0,.1-.1.4-.1.4v.2c-.1,0-.1.1-.1.1v.2h0c0,.1.2.4.2.4h.1c0,.1.1.8.1.8v.6h-.1c0,.1-.1.2-.1.2h-.2c0,.1-.6,0-.6,0h-.7c0-.1-.2-.2-.2-.2h-.2v-.2h-.2c0-.1-.1-.2-.1-.2h-.3l-.2.3-.2.3h-.1c0,.1-.1.2-.1.2l-.2.2h-.1c0,.1-.3.3-.3.3l-.3.2h-.2c0,.1-.2.1-.2.1h-.4c0-.1-.3-.2-.3-.2h-.1c0-.1-.5-.4-.5-.4l-.8-.5-.2-.2-.2-.4h-.1c0-.1-.2-.1-.2-.1h-.3c0-.1-.4,0-.4,0h-.3c0-.1-.2-.1-.2-.1h-.3c0-.1-.2-.2-.2-.2h-.4l-.6.2h-.4c0,.1-.4.5-.4.5v.2h0c0,.1.1.3.1.3h0v.3h-.1c0,.1-.5.8-.5.8l-.5.4h0c0,.1-.3.7-.3.7h-.2c0,.1-.4.1-.4.1h-.7c0-.1-.4-.2-.4-.2h-.2c0-.1-.9-.7-.9-.7h-.6c0,.1-1,.3-1,.3l-.3.2h-.2c0,.1-.5.7-.5.7h-.9c0-.1-.2-.2-.2-.2h-.2c0-.1-.1-.3-.1-.3v-.2c-.1,0-.2-.1-.2-.1h-.1c0-.1-.1-.2-.1-.2h-.2c0-.1-.1-.1-.1-.1h-.1c0-.1-.1-.3-.1-.3v-.2h0v-.5c-.1,0-.2-.1-.2-.1l-.3-.3-1.6-1.3h-.1c0-.1-.1-.2-.1-.2v-.6h-.1c0-.1-.2-.9-.2-.9h-.1c0-.1-.1-.2-.1-.2h-.4c0,.1-2.6,1.2-2.6,1.2h-.4l-.3-.2-.3-.2h-.1c0-.1-.1-.1-.1-.1h-.5c0-.1-.4-.7-.4-.7h-.1c0-.1-.1-.2-.1-.2h-.1c0,.1-.2.2-.2.2l-.2.2h-.2c0,.1-.3.1-.3.1h-.2v-.2c-.1,0-.3-.2-.3-.2h-.3c0,.1-.3.5-.3.5v.2c-.1,0-.2.2-.2.2v.2c.1,0,.1.2.1.2v.7l-.5,2.1v.3c-.1,0-.2.1-.2.1l-.5.5-.3.4v.3c-.1,0-.2.1-.2.1v.9h-.6c0-.1-.2-.2-.2-.2v-.2c-.1,0-.1-.1-.1-.1l-.3-.6v-.2h0c0-.1.1-.5.1-.5v-.4h0c0-.1-.1-.3-.1-.3h-.1c0-.1-.1-.2-.1-.2l-.8-.4-.2-.2h-.2c0-.1-.2-.2-.2-.2h-.3c0-.1-.1-.2-.1-.2v-.6c-.1,0-.1-.1-.1-.1v-.2c-.1,0-.2-.1-.2-.1h-.3c0-.1-.3-.1-.3-.1h-.2c0-.1-.1-.1-.1-.1h-.1c0-.1-.1-.3-.1-.3v-1.2h-.1c0-.1-.1-.2-.1-.2h-.1c0-.1-.2-.1-.2-.1h-.3c0-.1-.4,0-.4,0h-.2c0,.1-.2.2-.2.2v.2c-.1,0-.3.5-.3.5v1.6l-.2,1.1v1c.1,0,0,.3,0,.3v.7c-.1,0-.2.1-.2.1v.2c-.1,0-.3.1-.3.1h-.3c0,.1-1,.4-1,.4h-.3c0,.1-.4.5-.4.5l-.3.3-1.4.7-.4.3-.2.2-.2.3-.2.3-.3.2h-.3c0,.1-1,.4-1,.4h-.3l-.2-.2-.4-.2h-.7c0,.1-.5-.3-.5-.3l-.3-.4h-.2c0-.1-.7-.3-.7-.3h-.2c0-.1-.2-.3-.2-.3h-.1c0-.1-.1-.2-.1-.2h-.4c0-.1-.6-.1-.6-.1h-.5c0,.1-.3.1-.3.1h-.1c0,.1-.6.3-.6.3h-.2v.4c-.1,0-.1.2-.1.2v.2h-.1c0,.1-.3.1-.3.1h-.6c0-.1-.5-.5-.5-.5l-.2-.2-.7-.6-.5-.2-1.9-.5-.4-1.2-.3-.7-.9-1.3.6-.8h0c0-.1.2-.2.2-.2h.3c0-.1,0-.1,0-.1h.6v-.2c0,0,.2-.3.2-.3v-1.1c0,0-.2-.1-.2-.1v-.4h0c0-.1.2-.3.2-.3h.4c0-.1.2-.2.2-.2v-.2c0,0,.3-.5.3-.5v-.3c0,0,.2-.2.2-.2h0c0-.1,0-.3,0-.3v-.6c0,0-.4-.8-.4-.8h0v-.3l.2-.2.3-.5h0c0-.1,0-.1,0-.1h.4c0-.1.1-.1.1-.1h.4l.2-.2v-.2c.1,0,.6-1.4.6-1.4v-.5l-.3-1.9v-.3c-.1,0-.6-.4-.6-.4l-.4-.9.8-.5v-.2c.1,0,.2-.2.2-.2v-.4c.1,0,.1-.4.1-.4v-.5c.1,0,.3-.2.3-.2v-.2c.1,0,.2-.7.2-.7v-1c.1,0,.7-1,.7-1v-.3c.1,0,.1-.3.1-.3v-.6l.2-.3v-.4c.1,0,.1-.2.1-.2v-.4c-.1,0-.1-.2-.1-.2v-.2c.1,0,.2-.5.2-.5v-1.1c.1,0,.2,0,.2,0v-.3c.1,0,.7-.9.7-.9l.2-.2v-1.2l.3-.5v-.2c.1,0,.1-.5.1-.5h.1c0,0,.1-.2.1-.2h.9c0,0,.2-.3.2-.3v-.4c.1,0,.3-.2.3-.2l.7-.6.2-.2v-.3c.1,0,.1-.2.1-.2h-.1v-.3l.2-.3.2-.2.6-.4.3-.2.2-.2h0c0,0,.2-.2.2-.2h.4c0,0,.3.5.3.5h.2c0,0,.1,0,.1,0h.4c0,0,.4,0,.4,0l.3.2.5.3h.3l.3-.4h.2c0,0,.4-.3.4-.3h.8c0,0,.2,0,.2,0h.3c0,0,.2-.2.2-.2l.5-.4h.2c0,0,.1-.4.1-.4v-.2c.1,0-.2-.7-.2-.7v-1.3c.1,0,.2-.5.2-.5v-.2c.1,0,0-.3,0-.3l-.2-.5v-.8c.1,0,.3-.4.3-.4h0c0,0,.1-.3.1-.3v-.5c-.1,0-.2-.3-.2-.3l-.2-.4-.2-.2h-.5l-.3-.2h-.4l-.2.2h-.4c0,0-.1,0-.1,0l-.4-.2h-.1c0,0-.2,0-.2,0h-.7v-.5l.3-.9.3-.6.2-.5v-1.1c-.1,0-.2-.2-.2-.2v-.2c-.1,0-.5-.3-.5-.3h-.1c0,0-.1-.2-.1-.2v-.2c-.1,0-.1-.3-.1-.3v-1.1h0v-1c.1,0,.4-.4.4-.4l.3-.3.5-.4h.1c0,0,.2-.8.2-.8v-2.4c.1,0,0-.2,0-.2l.8-.8h.5c0,0,.7,0,.7,0l.3.5.3.6.4.5,1,.5h.8c0,0,.5-.7.5-.7l.4-1,.2-.2,1.4-.9.2-.4.2-.4.2-.4.5-.3,1.6-1.3.3-1.8v-2l.7-1.9,1.1-1.4,3.4-2.7,1.3-1.2.5-1.5-.2-3.6.3-2.5,1.2.9,2.4,1.7.6.2,1.1-.3.2-.5-.4-.4-.8.3.5-.8h1c0,0,5.4,2,5.4,2l1,.7,2,2,5.5,11,1,1.2,1,.8h0Z"/>
    <path id="MY08" class="st0" d="M85.2,118.6l.4,1.3.2.3h.2c0,0,.5.3.5.3l.5.3.3.2h.4c0,0,.3,0,.3,0h.3c0,0,0-.2,0-.2l.7-.8.7-.6h0c0,0,0-.2,0-.2l.2-.7.2-.4,3.3-2.9v-.3h.2c0,0,.2-.9.2-.9l.4-.7v-.2c0,0,.3-.2.3-.2l1.1-.8.2-.2.2-.2v-.7c0,0,.6-.8.6-.8l.3-.3,1.6-.2,1.2-.3.5-.2.3-.2.6-.6v-.3c0,0,.3-.3.3-.3v-.3c0,0,.4-1.3.4-1.3v-1.2l.2-1.8.3-.6.2-.3.3-.5.2-.2h.2c0,0,0,0,0,0l.2.2h.3c0,0,.3-.2.3-.2l.6-.6.3-.5.3-.7v-.6c0,0,0,0,0,0v-1.2c0,0,0-.3,0-.3v-.2h0c0,0,0-.2,0-.2h0c0,0-.2,0-.2,0h0c0,0-.2-.2-.2-.2v-.6c0,0,0-.2,0-.2h0c0,0,.4-.5.4-.5l.4-.4.2-.3.6-.4h0c0,0,0-.3,0-.3l.6-2.7v-.2c0,0,0-.2,0-.2h0c0,0,0-.2,0-.2l-.4-.2h0c0,0-.2-.4-.2-.4v-.2c0,0-.2,0-.2,0l-.2-.8h0c0,0,0-.2,0-.2h0c0,0,.2,0,.2,0h.3l.4.5.5,1.1.3.4.5.2h.9c0,0,.4,0,.4,0l1.1.7.8,1,.7,1.2.6,1.2.7.3,1.3-.4,2.2-1.3.7-.7.6-.8.4-.9v-1.1c0,0,.7-2.1.7-2.1l1.4-.7,1.9-.3,1.7-.9,1.7-1.1,4.9-1.9,1.6-.6,1.1-.3,1,.3.7,1,.3.5.2.3.4.3h.5c0,0,.4.2.4.2v.4c.1,0,0,.5,0,.5v.4l.9,2.1.7.8,1,.2.4-.2h.1v.2c.1,0,0,2.4,0,2.4l-.2.7h-.1c0,0-.5.5-.5.5l-.3.3-.3.4v.3c-.1,0-.1.2-.1.2v.4h0v1.7c.1,0,.2,0,.2,0h.1c0,0,.4.4.4.4v.2c.1,0,.2.2.2.2v.6c.1,0,.1.3.1.3v.2l-.2.5-.3.6-.3.9v.4h.2c0,0,.1,0,.1,0h.7c0,0,.4.3.4.3h.1c0,0,.2,0,.2,0h.2l.2-.2h.4l.3.2h.5l.2.2.2.4v.3c.1,0,.2.3.2.3v.4c-.1,0-.1,0-.1,0l-.2.4v.4c-.1,0-.1.4-.1.4l.2.5v.3c.1,0,0,.2,0,.2v.5c-.1,0-.2,1.3-.2,1.3l.3.7v.2c-.1,0-.2.3-.2.3h-.2c0,0-.5.5-.5.5h-.2c0,0-.2.2-.2.2h-.5c0,0-.2,0-.2,0h-.4l-.4.2h-.2c0,0-.3.5-.3.5h-.3l-.5-.3-.3-.2h-.8c0,0-.1,0-.1,0h-.2c0,0-.3-.5-.3-.5h-.3c0,0-.1,0-.1,0h-.2v.2l-.2.2-.3.2-.6.4-.2.2-.2.3v.2h.1v.6c-.1,0-.3.2-.3.2l-.7.6-.2.2v.4c-.1,0-.3.2-.3.2h-.1c0,0-.2,0-.2,0h-.7c0,0-.1.2-.1.2v.7c-.1,0-.4.5-.4.5v1.2l-.2.2-.6.9v.3c-.1,0-.2,0-.2,0v.7c-.1,0-.1.4-.1.4v.5c-.1,0-.2.2-.2.2v.6c.1,0,.1.2.1.2v.2c-.1,0-.1.2-.1.2l-.2.3v1.2c-.1,0-.7,1-.7,1v.2c-.1,0-.1.4-.1.4v1.1c-.1,0-.2.2-.2.2l-.2.2v.3c-.1,0-.1.2-.1.2v.8c-.1,0-.2.2-.2.2v.2c-.1,0-.9.5-.9.5l.4.9.5.4v.3c.1,0,.4,1.9.4,1.9v.5l-.5,1.4v.2c-.1,0-.3.2-.3.2h-.9c0,.1,0,.1,0,.1h0c0,.1-.3.6-.3.6l-.2.2v.2h0c0,.1.3.9.3.9v.4c0,0,0,.2,0,.2v.2c0,0-.2.1-.2.1v.2c0,0-.2.3-.2.3l-.2.5v.2c0,0-.3.1-.3.1h-.2c0,.1-.2.1-.2.1l-.2.2h0v.5h0c0,.1,0,.7,0,.7v.8c0,0-.2.2-.2.2h-.9c0,.1,0,.1,0,.1h-.2c0,.1,0,.2,0,.2l-.6.8.9,1.3.3.7.4,1.2-.6,1.8v.8c0,0,0,.3,0,.3l.3,1h0c0,.1,0,.2,0,.2l.5.5.2.4v.5h-.4c0,.1,0,.2,0,.2l-.4.9v.4c0,0-.2.2-.2.2l-.2.2h0c0,.1-.3.4-.3.4l-.4.7.6.4.5.7.2.2h.2c0,.1.3,0,.3,0l2.2.6h.5c0,.1.2.2.2.2h.1c0,.1.1.3.1.3v.2h0c0,.1-.2.4-.2.4h0c0,.1-.2.5-.2.5v.2c-.1,0-.2.1-.2.1v.2c-.1,0,0,.2,0,.2l.2.2.3.2h.2c0,.1.1.6.1.6v1.9c.1,0,.4.6.4.6h.1c0,.1.3.4.3.4v.6c-.1,0-.1.3-.1.3v.5c-.1,0-.1.2-.1.2v.2c.1,0,.3.1.3.1l.4.2h.7c0,.1.1.2.1.2h.4c0,.1.3.3.3.3h0v.2l-.2.3v.8l.3,1.2.2.6.2.3h.1l.4-.2h.1c0-.1.2,0,.2,0l.3.2h.2c0,.1.4.5.4.5l1.2,1.6-1,2.8v.8c-.1,0-.1.1-.1.1h0c0,.1.5.6.5.6v.4c.1,0,.4,3.4.4,3.4l.2.8.2.2.4.5v.4c.1,0,.2.3.2.3v.5l-.2,2v.6c.1,0,.3.1.3.1h.2l.4.2.4.7-.8.2h-.1c0,.1-.2.3-.2.3l-.2.3-1.6,2.1-1,.9-.4.4-.4.2h-.5c0,.1-.2,0-.2,0h-.1c0-.1-.1-.1-.1-.1h0c0-.1-.3-.6-.3-.6h-.1c0-.1-.2-.2-.2-.2h-.2c0-.1-.2-.2-.2-.2h-.1c0-.1-.1-.2-.1-.2h-.1c0-.1-.1-.2-.1-.2h-.1c0-.1-.4-.2-.4-.2h-.1c0-.1-.1-.2-.1-.2h-.1c0-.1-.2-.7-.2-.7h-.1c0-.1-.3-.6-.3-.6h-.1c0-.1-.2-.1-.2-.1h-.1c0-.1-.6-.2-.6-.2h-.3c0-.1-.3-.2-.3-.2h0c0-.1-.2-.2-.2-.2l-.2-.2h-.2c0-.1,0-.2,0-.2h0c0-.1,0-.3,0-.3h0v-.5c0,0-.3-.1-.3-.1l-.5-.2h-.4c0-.1-.6,0-.6,0h-.3c0,.1-.2.1-.2.1h0c0,.1,0,.2,0,.2v.2c0,0,0,.2,0,.2l-.2.3h0c0,.1,0,.2,0,.2v.2c0,0,.2.1.2.1l.3.3h0c0,.1.3.7.3.7l.2.9v.8c0,0-.4.6-.4.6l-1,.6h-.4c0,.1-1.2.4-1.2.4h-.9c0-.1,0-.1,0-.1h-.2v-.4c0,0-.3-.3-.3-.3h0v-.7h0v-.5l-.4-.3h-.3c0,.1-.7.4-.7.4h-.3c0-.1-.3-.4-.3-.4l-.2-.2h-.2c0-.1,0,0,0,0l-.4.2h-.3c0,.1-.2.1-.2.1h0c0-.1-.3-.6-.3-.6l-.2-.2-.2-.2h0v.2c0,0-.2.1-.2.1h-.4v-.7c0,0-.5-.3-.5-.3h-.3v.4h-.2c0,.1-.5.5-.5.5h-.3c0-.1-.3-.2-.3-.2h-.3l-.4.3h0c0-.1,0-.4,0-.4h0v-.3h0c0-.1,0-.2,0-.2h.6c0,.1.2.1.2.1h0v-.3h0c0-.1-.2-.3-.2-.3h0v-.6c0,0,0-.1,0-.1h-.4v.3h0c0,.1-.2.1-.2.1l-.2.2h0c0,.1-.2.4-.2.4h-.2c0,.1,0,0,0,0h0v-.7c0,0,0-.6,0-.6v-.2h-.8c0,.1-.4.1-.4.1h-.2c0-.1,0-.3,0-.3v-.2c0,0-.2-.2-.2-.2h-.7c0,.1,0,.2,0,.2h-.6c0,.1,0,.2,0,.2h0v.6c0,0,0,.1,0,.1h-.2c0,.1-.3.2-.3.2h-.4c0-.1,0-.2,0-.2v-.2h0v-.6c0,0,.2-.3.2-.3l.2-.2h0c0-.1,0-.3,0-.3l-.2-.3-1.2-.7h0c0-.1,0-.2,0-.2v-.2h0v-.3h0v-.3l-.2-.3h0c0-.1-.2-.1-.2-.1h-.4c0,.1-1.3.4-1.3.4l-1.7.2-.8.2h-.2c0,.1,0,0,0,0v-.3c0,0-.4-.2-.4-.2l-1,.2h-.5c0,.1-.3.3-.3.3l-.5.2-1.1-.3-1.2-.6-.6-.4-.6-.7-.2-.7-.2-.9v-2.3c0,0,.3-.8.3-.8l.6-.3h2.9c0,.1.9,0,.9,0l.7-.9.8-.4h1c0-.1.7,0,.7,0l-.4-1h-1.1c0,.1-1.1.7-1.1.7l-.5.3h-1.2c0-.1-.2-.8-.2-.8v-1.1c0,0,0-1.2,0-1.2l-.5-.7-2.4-1.6-.7-.7-.9-.7-1.1-.2-1,.7-.5-1-.4-1.5-.2-1.4.3-.6-.7-.2-.2-.6v-.7c0,0-.3-.7-.3-.7l-.5-.6h-.4c0-.1-.2-.3-.2-.3l.2-1,.4-1.2.2-.7v-.8l.2-.7.9-.6.2-.6v-1.3c0,0,1-3.1,1-3.1l.6-1.2-.7.3-.9-.3-.7-.6-.3-.9.2-.9.4-.8.6-.5.8.5.3-.7.4-.5.4-.4.4-.3-1.1-.2-1,.3h-.7c0,.1-.3-1.2-.3-1.2l-.2-2.3.4-.6h1.4v-.5h-.3l-.7-.3.4-.6v-.3c0,0-1-.4-1-.4h-.8c0,.1-.2.1-.2.1l-.3-.7v-.6l.3-.8v-.5l-.3-.2h-.4l-.4-.2v-.6c0,0-.6.3-.6.3h-.5c0,.1-1.1.1-1.1.1l-.5-.2.2-.4.5-.4h.2v-.6l-.2-.2-.3-.2-.5-.4-.5-.3h-.5c0,.1-.5.4-.5.4l-.3.4-.6-.7-.2-.6-.2-.6-.3-.7-1.1-1.3-.3-1-.7-1.6-.4-.6-.3-1.1v-.4h.4c0,0,.2,0,.2,0l.5-.5.5-.4.2-.3h0c0,0,3.5-.8,3.5-.8h.5l.6.2h0Z"/>
    <path id="MY13" class="st0" d="M776,126.6l4.3.4h2.2c0,0,1.3-.3,1.3-.3h1.5c0,0,.3.4.3.4l.3.5,1,4.4v.5c0,0,0,.5,0,.5l-.7,2.3-.2.5-.2.4-1,1-.2.3-.2.4v.9c0,0-.3,1.6-.3,1.6v.5c0,0-.2.5-.2.5l-1.5,2.6v.3c0,0-.2.4-.2.4l.2,3.5.2.7.7,1.1.2.5v2.2c0,0,.3.6.3.6l.3.3.3.2h.4c0,.1.7.3.7.3h.4c0,.1.4.4.4.4l.4.4.7.8.2.6v.5c0,0,0,.5,0,.5l-.3,1-.2.4-1.4,1.8-.2.5v.7c0,0,0,1.1,0,1.1v.7c0,0,.3.6.3.6l.2.4-.2.8-.5,4.1-.6,2-.9,1.8-.4.5-1.7.9-.3.4v1l.7.7,1,.5.6.7v1.5l-1.8,5.4-.2,1.8v1.9l.2,1.1,1.1,2.8v.5c0,0,0,.9,0,.9v1.1c0,0,.9,1.3.9,1.3l.4,1v.5l-.3.5h-.5c0,.1-.4,0-.4,0l-.4-.2h-.4c0-.1-1,1-1,1l-.9,2.1-1.6,7v.8l.8.9.7.2v.4c0,0-1.5,2.1-1.5,2.1l-.3.9-.2,1.9-.4.9-.7.4-1.9.2-3,1.3-1.5.2-1.3-.6-1.2-1.8-.6-.2-.8,1.2-.8,1.7-.6.6-2.6,1.8-.8.7-.6,1-.2.5v.5c0,0-.3.5-.3.5l-.3.5-.7.6h-.4c0,.1,0,.3,0,.3l.3.7,1.2,1.5.3.9-.5,1.2-.5.3h-.5c0,.1-.4.3-.4.3l-.3.6v.4l.5.9.2.5-.2.9-.4,1.1v.9c0,0,.6.7.6.7h.5l1-.5h.5c0-.1.5-.1.5-.1l.6.2.6.3.4.3.7.7.8,1.1.5,1.1v.8c0,0-.5.9-.5.9l-1,.3-2.1.2-1,.6-1.7,2-.7.4-.8.4-2,1.7-.9.6-1.8-.2-.6.3-.3,1v1c0,0,.2.7.2.7l-.3.6-1.2.4-3.6.5-1.4.8-.7,1.8-.5,2.5v.9l.2.4.5.7v.5c0,0,0,1.5,0,1.5v.4l.5,1.1h.5l.8-.3,1-.2.5.4.2.6v1.3c0,0-.5.9-.5.9l-.2.8v1.8c0,0,0,.8,0,.8l-.6.6-2.6,1-2.5.3-.5.2-.5.4-.4.4-.2.4-.2.5v.3c0,0,.2.4.2.4l.2.6v1.4l-.5,3.2-.8,2.4-1.2,2-.7.8-1.7,1.3-.5.8v1.1l.2,1v1l-.2.9-.8.7-1.1.3-1-.4h-.2c0-.1-3.4-2.6-3.4-2.6l-1.1-.5h-1.1c0-.1-.9.1-.9.1l-6.9,2.9h0l-1,.7-.4.2-.6-.2-.5-.5-.4-.5-.5-.4-1.7-.5h-1.9l-6.6,1.1-.9.3-1.1.9-2.7,3.5-7.4,4.9-1.1.3-1.3-.6-2.4-2.8-1-.6h-.9l-1,.2-1.8.8h-2.2c0-.1-3.4-2.7-3.4-2.7l-2.2-.8-2.7-.6h-2.1c0-.1-.6-.3-.6-.3l-1.5-1.2-1.7-.8-1.8-.2-1.8.3-1.8.6h-.7v-.4c0,0,.1-.5.1-.5l1.5-1,.7-.8.5-.9.3-1v-1c0,0-.5-.7-.5-.7l-.8-.4-1.1-.4-.8-.2h-2.2c0,.1-.9-.1-.9-.1l-.8-.2h-.8c0-.1-.8.2-.8.2l-.5.4-.3.4-.3.4-.5.3h-.4c0-.1-1.2-.4-1.2-.4l-13.8-.7-1.1.2-.8.5-.6.7-.8.6-.8.3-2.9.2-1.1.4-5.3,2.5-.9.7-.3,1.2.2.4h1.1l.2.4v1.1c0,0-1.6,2.9-1.6,2.9l-2.4,7-.4.5-.6.3-1.2.2h-3.7c0-.1-2.9.9-2.9.9l-4.1,4.9-2.7.7-1.4-.4-2.4-1-1.2-.4h-1.5l-3.9,1.6-1.1,1.5-.6.3-.5-1.1-.2-.8-.2-.7-.5-.4h-.8l-1.8.6-1,.2h-.9c0-.1-1.1-.4-1.1-.4l-6.2-2.7h-.9c0-.1-10.4,2.5-10.4,2.5h-2.9c0,.1-1.4.4-1.4.4l-1.3.6-2.6,2.2-.4.7v.8c0,0-.2.4-.2.4l-.3.2h-.3l-.4-.4h-.2c0-.1-.5.2-.5.2h0c0,.1-.9.5-.9.5h-.2l-.5-.2h-.3l-.5.3-.8.8-.7.3h-.6c0-.1-.4-.4-.4-.4l-.3-.4-.3-.2h-.7c0,.1-.2.4-.2.4l-.5.6-1.9.9-2.2-.2-2.2-1.1-1.7-1.4-1.9-2.6-.8-.7-.6-.2-2.3-.5h-.7c0,.1-.6.3-.6.3l-.5-.2v-.9c0,0-.3-1.2-.3-1.2l-2.3-3.3-1-2-.7-.9-.8-.5-2.7-.3-.9-.4-1.1-.7-.9-1.8-.9-.8-1.7-.8-.6-.5-.5-1-.9-2.7-.6-.7-.8-.5h-.9l-.9.2h-.9c0-.1-.9-.8-.9-.8l-.8-2-.3-.3-.9.5h-.3c0-.1,0-1.4,0-1.4l-.3-.4-4.1-3.6-.9-1.1-.5-1-.3-.9v-2.1l.3-3.6-.3-.9-.8-.3h-2c0-.1-.6-.3-.6-.3l-.5-.4-.5-.6-.3-.5-.2-.6v-.7l-.3-1.7v-.7l.4-.6,1.7-1.4.5-.6.7-1,1.2-2.2.9-2.4.2.8v1c.1,0,.6,1.9.6,1.9v.9c.1,0-.1.8-.1.8l-.2.6v.7c-.1,0,.4,1.1.4,1.1l1.3,1.9.9.9.9.7,2.9,1.2,1.6,1,1.9.8.8.6.5.8.8,1.6.6.8h.6c0,.1,2.3.1,2.3.1h.6c0-.1.7-.5.7-.5h1c0-.1,5.9-.1,5.9-.1l.6.2.9.6.5.2.2-.2.8-.6.3-.2h.4c0-.1.3-.2.3-.2l.3.2,1.1,1.2h.3c0,.1.2-.7.2-.7l.5-.5v-.3c0,0,0-.3,0-.3l-.2-.5v-1.6c0,0,0-.5,0-.5l.5-1,.8-.4.6.2.4,1.3.4.6v.3c0,0,.2.3.2.3v.7c0,0,0,.3,0,.3l.2.3.2.3.3.2h.3c0,.1.3.3.3.3h.4c0,.1,1,.1,1,.1l.5-.2.6-.8,1.4-.5.8-.5h.7c0-.1.6.8.6.8l-.5.7-.4.6-.3.7v1c0,0-.2.3-.2.3l-.8.9-.3.5,1.2-.5h.7c0-.1.6.2.6.2l.5.5v.5c0,0,.3.4.3.4l.5.2h.4c0-.1,1-.6,1-.6h.5l.6.2,1.9,1,2.7.8,1.2.7.6,1.1-.3,1.1-.8.9-1.8,1.1v.4h1.2c0-.1,1-.2,1-.2l.9-.5.9-.8.4-.8v-.9l-.2-.9v-.7c0,0,1.2-1,1.2-1l2.1.3,4,1.6,1.9,1.3,3.6,3.6,1.7,1.2,2.8,1.3.6.2h1.1c0-.1,1.5-.9,1.5-.9l1-.3,1.5.6,1.7,1.3,1.8.9,2-.9h-.8c0-.1-1.3-.5-1.3-.5l-.6-.2-.2-.3-.4-1.2-.4-.3h-.7c0-.1-1.3-.6-1.3-.6h-.7c0-.1-.5.1-.5.1l-1.7.8h-1l-.9-.3-.7-.5-.7-.7-.8-.6-2.1-.8-.7-.6-.9-2.2-.9-.9-.2-.6v-1.7l.7-1.6.4-1.7.4-.6,2.7-.5h1c0-.1.9.3.9.3l.6.8.6,1.1.7.6,1.1-.5h.6c0-.1.6.4.6.4l.8.4,1-.3-.9-.3-.5-.2-.8-.6h-.4c0-.1-.4-.1-.4-.1l-.9-.2h-.5v-.7l-.5-.7v-.2c0,0-.3-.2-.3-.2l-.8-.2h-.3c0-.1-.2-.3-.2-.3l-1.1-1.8-.2-.6v-.7c0,0,.1-.3.1-.3l1-.3.4-.2v-.3c0,0-.8-.4-.8-.4l-.2-.4.2-1,.4-.8,1-1.6,1.4-3,1.4-4.3v-1.1c0,0,.3-.2.3-.2h.6c0,.1.9.4.9.4h1.1c0-.1-1.2-1.1-1.2-1.1v-1.1c0,0,.6-.6.6-.6h.8l.9.4,1.7.3h.4c0-.1.6-.5.6-.5l.3-.3.9-1.2v-.4c0,0-.3-.4-.3-.4l-.5.2-.5.5-.4,1.2h-.4c0,.1-.5-.1-.5-.1l-1.3-.8-.9-.2-3.4.5h-.6c0-.1-.3-.6-.3-.6v-1.1l.3-.7.7-.7.9-.5.9.2-.4-.9-.9-.3-.8-.2-.4-.3v-.9c0,0,.6-2.1.6-2.1l.5-3.3.6-1.3,1.1-.9.4.8.6.4,1.6.5.5.4,1.2,1.4.4.3.2.2.3.2.4.2h.3c0-.1,1.5-1.1,1.5-1.1h.4c0-.1,1.6-.3,1.6-.3h.3l.9.7.9.5-.4-.9-.9-.9-1.5-1.4-.4-.6-.6-1.9-.3-.7h1.4c0,.1,1.3.4,1.3.4h1.1c0,.1.9-.7.9-.7h.3v.2h0c0-.1.3-.2.3-.2l-1-.4-1.8-.4-.7-.5-.6-.5-.5-.5-.2-.7v-1.1l.8-2.9.2-1.8.3-.7.5-.5,3.4-2.5,5-3.2,1.4-.7,8.9-1.7,7.1-.2,13.1-3.5,12.8-3.4,7.1-1.5,2.9-1.1h.5l8.1-2.5,1.5-.8,2.5-2.7,1-1.7-.6-1.1.3-.4,1.2-.8,2.3-2,.4-.2.2-.5,1.6-2.4,3.6-3.2.8-1.3.2-.3v-.4c0,0,.2-1,.2-1l.2-.5,1.1-.8.2-.3.4-.5,2.2-2.5,1.1-1.9.3-1,.2-1.1.3-.9.9-.7,1.9-1.1,11.3-9.7,9.7-12.6,1-2.3-.4-1.8,1-1.5.5-2v-2.2l-1.1-4.4.3-.7,1.1-.3,3,1.4,2.6.4.9.5,1.5,1.2,1.2.4.5.4.4.9.3.2h1c0,.1,0,.4,0,.4v.4c0,0,.2.3.2.3l.5.5.3.6.3,1.3v1.3l.7.9.3,2.1-.2.4-.6.6-.2.3v.7c0,0,.3.4.3.4h1.6c0,.1,2,.5,2,.5l1.9-.3h.9l.6.6.9,3,.5.9.7.9,2.9,2.6.9.7.4.4.2.5.4,1.1.2.4,1.9.2,2.2-1.3,4.3-4,.3-.7.3-1.9.3-.9,1.1-1.6.3-.9-.2-.8-1.4.6v-.9l.2-.5.3-.3,1.1-1,.5-.8.4-.8.4-1.8v-1.3c0,0-.2-.2-.2-.2h-.7c0,.1-.9-.2-.9-.2l-.9-1.3-.2-1.7-.3-5.5v-1c0,0-.4-.9-.4-.9l-.9-1.8-.3-.8v-.8h0l.4-.4,1.7-.7.7-.5,1.5-1.5.9-.5,1-.3h.9c0,.1.8.2.8.2h.8l.8-.5.3-.7v-1.5c0,0,1.2-1,1.2-1l.5-.2.4-.3.4-.4.3-.4.3,1v1.8l.3,1.7-.3,3.7.2,3.7.4,1.8,1.5,3.7.5,1.8.6,4.6.4.6.6.4,2.6,1,1,.2h1.4c0-.1.4,0,.4,0l.7.6.5.2h1.3c0,.1.8.7.8.7l1.1.5h1l.7-.7-.2-1-.6-1-1.7-1.5-1-1.4-.6-1.9-.3-1.9v-1.8l.4-1.9v-.8c0,0-.1-1.1-.1-1.1l-3-8.8-1.2-1.6-.6-.4-.6-.3-.5-.4v-1.1h1.5c0-.1.5-.4.5-.4l.5-1.6.5-.4h.6c0,0,.6.7.6.7v.3c0,0,.3,0,.3,0h1.5l.5.2.3.3.5.9.8.3h1.7c0-.1.6-.5.6-.5l1.5-1.6.2-.3.7-.5h0ZM590.3,245.9v.6c0,0-.1.3-.1.3l-.4-.3-.5-.2-.4.2-.3.4-.2.5-.5-.7-.8-1.9-.5-.4-.9-.4-.2-.9.3-2.1v-1.9c0,0-.7-7.6-.7-7.6v-2.4c0,0,.7-1.4.7-1.4l1.6.6,1,1.4.5,2v8.1l.4,3.4,1,2.7h0Z"/>
    <path id="MY07" class="st0" d="M78.3,98.4l6.7.4h.8c0,0,.8.5.8.5l-.2.5v.4c0,0-.2,2.8-.2,2.8l.8,9.6.8,5.4v.4c0,0-.2.2-.2.2h0c0,0-.2.2-.2.2h-.7l-1.4-.2-.6-.2h-.5l-3.5.9h0c0,0,.2-.4.2-.4l.4-1.5.6-1.4v-1c0,0,0-.5,0-.5l-.4-.9v-.3c0,0,0-.6,0-.6l.4-.8v-.5c0,0,0-.6,0-.6l-1.1-2.2-1-1.3-.2-.6v-1.1c0,0,.2-4,.2-4l-.3-1.1-1-1.8v-.3q0,0-.1,0ZM76.2,103.9l.4.7.7.4.5.4-.9,1.6-.2,1.8-.2.8-1.1,2.2v.8c0,0-2.6-.4-2.6-.4h-2v.2h-.4c0,0-.2-.3-.2-.3v-.2l.6-.4.2-.6-.3-2.5v-2.1c0,0,0-.5,0-.5l-.2-.3-.2-.3v-.2c0,0,0-.5,0-.5l.2-.3v-.3l-.3-.4.6-.2.2.3.2.4.4.2h.4c0,0,.3-.4.3-.4l.2-.4.3-.2.8-.2h1c0,0,.9.3.9.3l.7.6Z"/>
    <path id="MY10" class="st0" d="M100.8,178.6h.2c0-.1.8-.3.8-.3l1.7-.2,1.3-.3h.4c0-.1.2-.1.2-.1h0c0,.1.2.4.2.4v.2h0v.3h0v.3h0v.2l1.2.7.2.3v.2c0,0,0,.1,0,.1l-.2.2v.3c0,0-.2.3-.2.3v.2h0v.3h0c0,.1.2.2.2.2h.5c0-.1.2-.2.2-.2h0c0-.1,0-.4,0-.4v-.2h0c0-.1,0-.2,0-.2h0c0-.1,0-.1,0-.1h.5c0-.1.2-.2.2-.2h.5v.2c0,0,.2.2.2.2v.2c0,0,.3.1.3.1h.8c0-.1,0-.1,0-.1h.2v.2c0,0,0,.6,0,.6v.3c0,0,0,.2,0,.2h0v.2h0c0,.1.2,0,.2,0l.2-.3h0c0-.1.2-.3.2-.3h.3v-.3h0c0-.1.2-.1.2-.1h0c0,.1,0,.5,0,.5h0c0,.1,0,.2,0,.2l.2.2h0v.3h0c0,.1-.2.1-.2.1h-.4c0-.1-.2-.1-.2-.1h0v.4h0c0,.1,0,.4,0,.4h0c0,.1,0,.1,0,.1l.4-.3h.6c0,.1.3.2.3.2l.5-.4h.2v-.5h.3l.4.3v.2c0,0,0,.3,0,.3h0c0,.1,0,.2,0,.2h.4c0-.1,0-.3,0-.3h0l.2.2.2.2.3.5h0c0,.1.2.1.2.1h.3c0-.1.4-.3.4-.3h0c0-.1.2,0,.2,0l.2.2.3.3h.2c0,.1,0,.1,0,.1l.7-.3h.3c0-.1.4.2.4.2v.4h0v.7h0c0,.1.2.4.2.4v.2c0,0,0,.1,0,.1h.2c0,.1,0,.1,0,.1h.2c0,.1.7.1.7.1l1.2-.3h.4c0-.1,1-.7,1-.7l.5-.6v-.8c0,0-.3-.9-.3-.9l-.3-.6h0c0-.1-.3-.4-.3-.4h0c0-.1,0-.3,0-.3h0v-.2l.2-.3v-.4c0,0,.2-.1.2-.1h0c0-.1.2-.1.2-.1h.3c0-.1.6-.2.6-.2h.4c0,.1.5.3.5.3h.2c0,.1,0,.3,0,.3v.2h0c0,.1,0,.3,0,.3h0c0,.1,0,.2,0,.2h0c0,.1,0,.1,0,.1l.2.2h.2c0,.1,0,.2,0,.2h.3c0,.1.3.2.3.2h.6c0,.1.1.2.1.2h.3c0,.1.3.6.3.6h.1c0,.1.2.7.2.7h.1c0,.1.1.2.1.2h.1c0,.1.4.2.4.2h.1c0,.1.1.2.1.2h.1c0,.1.1.2.1.2h.1c0,.1.2.2.2.2h.2c0,.1.2.2.2.2h.1c0,.1.3.6.3.6h0c0,.1.1.1.1.1h.1c0,.1.2.2.2.2h.3c0-.1.2-.1.2-.1l.4-.2.4-.4,1-.9,1.6-2.1.2-.3.2-.2h.1c0-.1.8-.3.8-.3l1.3,2,.6.6h.3c0,.1.8.5.8.5h.2c0,.1.2.1.2.1h.6l.9.4,1.5.9.3.2.2.5h.1c0,.1.2.3.2.3v.2c.1,0,.1.1.1.1v.2l.2.4.7,1,.4.7v.4c.1,0-.2,1.4-.2,1.4v.2c-.1,0-.2.1-.2.1h-.1c0,.1-.1.2-.1.2h-.3c0,.1-.2.2-.2.2h-.1c0,.1-.8,1.6-.8,1.6l-.2.4v.7h.1c0,.1.1.3.1.3l.3.5v.3c.1,0,.1.1.1.1l.4,1.5v.5c-.1,0-.5.7-.5.7l-.5,1.3,3,3.9h.3c0,.1.5.2.5.2l1.7.9h.3l1.2.2h.3l.2.2h.1c0,.1.2.3.2.3l.2.5.3.5v.3c.1,0,.1.2.1.2v1.4c-.1,0-.1.2-.1.2v.2c.1,0,.2.4.2.4l.3.5v.2c.1,0,.2.1.2.1v.3c.1,0,.1.2.1.2v.3l-.2,1.5v1.3c.1,0,.1.8.1.8l.2.6v.4h0c0,.1-.1.3-.1.3h-.3c0,.1-.3.3-.3.3h-.2c0,.1-.1.3-.1.3v.3c-.1,0-.3.6-.3.6v.6c-.1,0-.1.4-.1.4h0c0,.1-.1.5-.1.5h-.1c0,.1-.2.3-.2.3l-.8.6h-.1c0,.1-.1.3-.1.3v.2c-.1,0-.4.9-.4.9v1.1c-.1,0-.3.5-.3.5v.2c-.1,0-.4.3-.4.3l-.5.4h-.3c0,.1-.3.2-.3.2h-.2l-1.7-.3h-1.4c0-.1-.4-.1-.4-.1h-.7c0,.1-.1.5-.1.5v.8c.1,0,.6,2.7.6,2.7v1.9c.1,0-1.1,2.5-1.1,2.5l-.3.6v.2c-.1,0-.2.9-.2.9v.3c-.1,0-.3.4-.3.4l-.3.6v1.1h-.5l-.6-.4-.4-.5-.8-.5-2.6-.5-.9-.4-1.6-.3-1-.4-1.8-1.3-1.1-1.3-2.3-3.5-1.4-1.2-2.1-.5-2-.2-1.2-.8.8-2-1-.2v-.6c0,0,2.4-2.8,2.4-2.8l.7-.7.6-.2.5-.5v-1.2l-.3-2.3-.3-.6-1.3-1-.3-.6-1-6-.2-1-.7-.7-1.6-1.4-.2-.3v-.4c0,0-.4-.4-.4-.4l-.9-.2-.5-.2-.4-.3v-.2c0,0-.4-.8-.4-.8l-2.2-2.9-1.5-1.4-.3-.4-.4-1.1-.9-1.3-.4-2.1-.4-1-.7-1-3.4-2.3-1.1-.5-.5-.3-.2-.3-.8-1.3-1.2-1.5-.7-.6-2.2-.3-.5-.5v-.8l.5-1.1.8-.7h0ZM141.4,208.1h-.4l-1.1-.5-.5-.6h-.3c0-.1-.1-.1-.1-.1h-.1c0,.1-.1.2-.1.2l-.3.2-.6.3h0c0,.1-.1.2-.1.2l-.2.3-.6,1.1v1.8c.1,0,.2.2.2.2l.2.3h.1c0,.1.1.3.1.3h.1c0,.1.6.4.6.4l.2.2v.2c.1,0,.1.2.1.2v.2h.1v.2h.1c0,.1.1.2.1.2v.3c.1,0,.1.2.1.2h0v.2l-.3.4h-.1v.8c.1,0,.2.3.2.3v.2h.2c0,.1.2.2.2.2h1.9c0-.1.3-.1.3-.1h.1c0,.1.1.1.1.1v.2c.1,0,.2.2.2.2h.2c0-.1.1-.3.1-.3v-.3c.1,0,.2-.1.2-.1h.2c0-.1.1-.1.1-.1h.2v-.2c.1,0,.2-.1.2-.1v-.3l-.2-1.8-.2-.9v-.5c-.1,0,0-.3,0-.3h.1c0-.1.2-.3.2-.3v-.9c.1,0,.2-.2.2-.2l.3-.2v-.2c.1,0,.1-.2.1-.2v-.5c-.1,0-.3-.4-.3-.4l-.2-.5-.2-.2v-.2c-.1,0-.2-.1-.2-.1h-.2c0,.1-.5.3-.5.3h-.2c0,.1-.3.2-.3.2h0ZM139.7,223.5h.4c0-.1.6-.7.6-.7l.2-.3.2-.4.9-1.1v-.8l-.3-.5-.4-.3v-.9c-.1,0-.5.3-.5.3h-.2l-.2.2h-.7c0,.1-.3.2-.3.2v.3c-.1,0,0,.3,0,.3l.2.2v.3h-.2v.4l.2.7v.3h-.1c0,.1-.1.3-.1.3l-.2.2v.4c-.1,0-.1.3-.1.3l.2.4h.2c0,.1.2.2.2.2h0ZM120.7,215.5v.5c0,0-.5.3-.5.3l-.7.2-.3-.5.3-.6.9-.3.3.4h0ZM123.8,215.3v2c0,0-.7.6-.7.6l-.9.3-.7.5-.3.3-.2.2h-.4c0,.1,0-.2,0-.2v-.5c0,0,1.2-2.8,1.2-2.8l.7-1,.8-.3.6.3v.6h0Z"/>
    <path id="MY05" class="st0" d="M141.6,236.4v-1.1c.1,0,.4-.6.4-.6l.2-.4v-.3c.1,0,.2-.9.2-.9v-.2c.1,0,.4-.6.4-.6l1.2-2.5v-1.9c-.1,0-.6-2.7-.6-2.7v-.8c-.1,0,0-.4,0-.4h.7c0-.1.4-.1.4-.1h1.4c0,.1,1.7.4,1.7.4h.5c0-.1.3-.2.3-.2l.5-.4.3-.3v-.2c.1,0,.3-.5.3-.5v-1.1c.1,0,.4-.9.4-.9v-.2c.1,0,.2-.2.2-.2h.1c0-.1.8-.7.8-.7l.2-.2h.1c0-.1.1-.5.1-.5h0v-1.1c.1,0,.3-.6.3-.6v-.3c.1,0,.2-.2.2-.2h.2c0-.1.3-.3.3-.3h.3c0-.1.1-.3.1-.3h0v-.5l-.2-.6v-1.5c-.1,0-.1-.6-.1-.6l.2-1.5v-.8c-.1,0-.2-.1-.2-.1v-.2c-.1,0-.4-.5-.4-.5v-.4c-.1,0-.2-.2-.2-.2v-1.4c.1,0,.1-.2.1-.2v-.5c-.1,0-.4-.5-.4-.5l-.2-.5-.2-.2h-.1c0-.1-.2-.3-.2-.3h-.3l.2-.2h.2c0-.1.1-.2.1-.2h.1v-.4c.1,0,.1-.2.1-.2h.1c0-.1.3,0,.3,0l.4.2.9.6.3.3.2.3v.2h0c0,.1.1.2.1.2h.1c0,.1.3.3.3.3h.2c0,.1.1.2.1.2l.2.2h.4c0,.1.9.1.9.1h1c0,.1.2.4.2.4v.2c.1,0,.3.5.3.5h.1v1.2c.1,0,.1.1.1.1h.2c0,.1.2.1.2.1h.4c0-.1.5-.3.5-.3l.3-.2h.2c0-.1.1-.2.1-.2h.5c0-.1.2-.1.2-.1h.1v-.3h.3c0,.1.4.2.4.2l1.9.9,5.8,1.9h.3l3.6.6.3.2,1.8,2h.1c0,.1,1.4,1.9,1.4,1.9l9.3,6.4h.2c0,.1.1.1.1.1h.3c0-.1.1-.2.1-.2h.1c0-.1.1-.1.1-.1l.3.5.5,2.1-.2,1.4-2.6,6.9-.4,1.2v.3c-.1,0,0,.2,0,.2l.2.4v.3c.1,0,.1.2.1.2h0c0,.1-.3.5-.3.5l-.2.2v.2c-.1,0-.4.7-.4.7v.4c-.1,0-.2.5-.2.5v.5c.1,0,.2.2.2.2v.6l-.3.6v.8c.1,0,.2.4.2.4h0v.6c-.1,0-.7.7-.7.7v.4c-.1,0-.3,1.2-.3,1.2l-6.6-1.6-.7-.3-2.6-1.2h-1.9c0,.1-3.2,1.1-3.2,1.1h-.3c0,.1-1.9-.3-1.9-.3l-1.2-.5-.8-.5h-.4c0,.1-.8.9-.8.9h-.2c0,.1-.2.3-.2.3l-1.9.5h-.3l-.9-.3h-.2c0,.1-.2.1-.2.1h0v.7h-.1c0,.1-.1.2-.1.2h-.1c0,.1-.1.2-.1.2l-.2.4h-.1c0,.1-.2.1-.2.1h-.1c0-.1-.1-.2-.1-.2l-.2-.4-.7,1-.4.3-1.5.9v-.2h-.8c0-.1-.7-.4-.7-.4l-1.4-.9-.8.6h-1.5c0,.1-.5.7-.5.7l-.4-1.1v-1.5c-.1,0-.3-1.3-.3-1.3l-.8-.5-.3-.2-.4-.3-.7-.8-1-2.7-.4-.5-.6-.2-1.8-.2h0Z"/>
    <path id="MY04" class="st0" d="M154,245.9l1.5-.9.4-.3.7-1,.2.4h.1c0,.1.1.2.1.2h.3c0-.1.2-.5.2-.5h.1c0-.1.1-.2.1-.2h.1c0-.1.1-.2.1-.2v-.5h0v-.2h.4c0-.1.9.2.9.2h.3l1.9-.5.2-.2h.2c0-.1.8-.9.8-.9h.1c0-.1.1-.1.1-.1h.2l.8.5,1.2.5,1.9.4h.3c0-.1,3.2-1.1,3.2-1.1h.4c0-.1,1.5-.1,1.5-.1l2.6,1.2.7.3,6.6,1.6-.9.7-1.1.4-.4.3-.9,1.2-.2.4v.3c-.1,0-.1.2-.1.2v.5c.1,0,.1.2.1.2v.3c-.1,0-.9,2.4-.9,2.4v.5c-.1,0-.2.2-.2.2v.2c.1,0,.1.4.1.4v.2c.1,0,0,.3,0,.3v.2h-.1c0,.1-.8.8-.8.8v.2c-.1,0,0,.2,0,.2v.2c.1,0,.2.3.2.3h.1c0,.1.1.2.1.2h.3c0,.1.8.4.8.4l.2.2h.7c0,.1.1.2.1.2v.3c.1,0,.1.4.1.4v.9c-.1,0-.2.4-.2.4v.2h-.8c0-.1-.5.2-.5.2l-.8,1.2-6.5-2.6-7.4-3.1-1.6-.9-1.2-1-3.5-3.9-.5-.2-1-.2-1-.5-.5-.8v-.6q.1,0,0,0Z"/>
    <path id="MY01" class="st0" d="M182.2,244.5l.2-1.2v-.4c.1,0,.7-.7.7-.7v-.2c.1,0,.1-.3.1-.3h0c0-.1-.1-.5-.1-.5v-.6c-.1,0-.1-.2-.1-.2l.3-.6v-.8c-.1,0-.2-.2-.2-.2v-.8c.1,0,.2-.4.2-.4l.3-.7v-.2c.1,0,.3-.2.3-.2l.3-.4h0v-.6c-.1,0-.3-.4-.3-.4v-.2c-.1,0,0-.3,0-.3l.4-1.2,2.6-6.9.2-1.4,2,.7,2.5,1,.6.4,6.6,7.9,1.6,1.3,7.3,3h.3c0,.1.1.1.1.1l7-2.6,1.9-.4h.7l.5.3.6.4,2.6,1,.3.2.4.4.2.4h.1c0,.1,6.6,4,6.6,4l.4.2h.2v-.5c-.1,0-.1-.1-.1-.1h.1c0-.1.1-.2.1-.2l.5-.7h0v-.6c.1,0,0-.2,0-.2v-.5c-.1,0-.3-.3-.3-.3l-.2-.3h-.1c0-.1-.2-.1-.2-.1h-.4c0-.1-.1-.2-.1-.2h-.1c0-.1-.1-.2-.1-.2h0v-.2h0c0-.1.1-.4.1-.4h.1c0-.1.3-.5.3-.5h.1v-.2l-.3-.6v-.2h.1c0-.1.1-.3.1-.3h.1c0-.1.1-.2.1-.2v-.2c.1,0,.2-.1.2-.1v-.3c.1,0,.1-.2.1-.2h0c0-.1-.1-.3-.1-.3h-.1c0-.1-.1-.3-.1-.3h-.1c0-.1-.2-.2-.2-.2l-.3-.2h-.1c0-.1-.1-.2-.1-.2v-.2l.2-.2,1-.5h.1c0-.1.4-.8.4-.8v-.3c.1,0,.7.3.7.3h.7c0,.1.8.1.8.1l.3.2.7.6.5.2h.4c0-.1,1.1-.6,1.1-.6l.7.3v.3c.1,0,0,.4,0,.4v.4c.1,0,1.7,1.3,1.7,1.3l.6.7,1.2,2.6-.4,1.1v.9c-.1,0,.3.8.3.8l3.4,4.3.4.4,1,.8.3.3.2.5v.9c.1,0,.2.5.2.5l.3.5.8,1v.6c.1,0,0,.4,0,.4l-.4.9v.6c-.1,0,.2.9.2.9l2.2,2.7,1.2,2.9.8,1.2.6,1.1.3.5.9,1.1.3.5.4,1.1v.9c.1,0,0,2,0,2l.3.9.5,1,.6.6.6-.5h.3l1.2,2.2.5,2.2.8,1.2.3.7v1.5l.3.7.5.6.4.6-.2.5.3.6.3,1.9,1,2.6.4,2.1v1.2l-.3.5-.4.4.2,2-.3.7h-1.7l-.2.2-.5.7h-.2c0,.1-2.1,0-2.1,0l-.9-.2-1.9-.7-.4-.3v-1.4l-.2-.7-.6-.4-.6-.5-.5-.4-.2-1.7,1.2-.8,1.7-.7,1.1-1.3-.8-.2-.9.2-.7.5-1.6,1.1-.3.2-.2-.3-.3-.9-1.4-3-1.1-1.6-1.1-.8-.2.6.4,1.3,1.8,2.7v.7l-.2,1.3v.6c.1,0,.3.6.3.6v.7c.1,0,0,.8,0,.8l-1.7,1.3-2.2-.5-4-2.1h-1.2c0,.1-1.9,1-1.9,1l-.9.3-1.9-.2h-.7c0,.1-.8.5-.8.5l-2.3,3-1.4,1.1-1.7-.3v-.2l-.4-.5-.3-.4-.2.3v.5l.3.7v.9c-.1,0-.9,1.2-.9,1.2l-.7,1.6-.6-.9-1.6-1.4-.6-.9-.4-.9-1.5-5-.9-1.8-1.3-1.5-2-1.2-5.5-2.1-7.8-4.9-1.9-.9-1-.3h-1.1c0-.1-.7-.3-.7-.3l-.6-.5-.7-1.2-.9-1-1.1-1-1.3-.8-1.5-.7-.7.3-2.3.3h-.8l-1-.6-.6-.9-.9-1.9-.8-.9-3.8-3.1-.5-.5-.3-.6h.4v-.5c-.1,0-.1-.2-.1-.2l-.6-.5-.8-.7-1.8-1,.8-1.2.5-.3h.5c0,.1.2.1.2.1v-.2c.1,0,.2-.4.2-.4v-.9c.1,0,.1-.4.1-.4v-.3c-.1,0-.2-.1-.2-.1h-.2c0-.1-.3-.1-.3-.1h-.2l-.2-.2-.8-.3h-.3c0-.1-.1-.2-.1-.2h-.1c0-.1-.1-.4-.1-.4v-.2c-.1,0-.2-.2-.2-.2v-.2c.1,0,.9-.7.9-.7h.1v-.6c.1,0,0-.2,0-.2v-.6c-.1,0,0-.2,0-.2v-.5c.1,0,.9-2.4.9-2.4v-.3c.1,0,.1-.2.1-.2v-.5c-.1,0-.1-.2-.1-.2v-.3c.1,0,.3-.4.3-.4l.9-1.2.4-.3,1.1-.4.9-.7h0ZM257.4,227.6v2.3c.1,0,0,.6,0,.6l-.5.4-.9.3h-.9l-.7-.2-.9-1-.4-.5v-.7c.1,0-.2-.8-.2-.8v-.4c.1,0,.3-.2.3-.2l.6-.3.3-.3.4-.7v-.7l-.2-.7v-.7c-.1,0,0-.5,0-.5l.3-.5.4-.3h.5c0,.1.2.3.2.3v.3c.1,0,.2.5.2.5v.4c0,0,.7.9.7.9l.3.6.5,1.9h0Z"/>
    <path id="MY06" class="st0" d="M125.7,142.8l1.9.5.5.2.7.6.2.2.5.4h.6c0,.1.3.1.3.1h.1v-.7c.1,0,.1-.1.1-.1h.2c0-.1.6-.3.6-.3h.1c0-.1.3-.1.3-.1h.5c0-.1.6-.1.6-.1h.4c0,.1.1.2.1.2h.1c0,.1.2.3.2.3h.2c0,.1.7.3.7.3h.2c0,.1.3.5.3.5l.5.4h.7c0-.1.4,0,.4,0l.2.2h.3l1-.3h.3c0-.1.3-.3.3-.3l.2-.3.2-.3.2-.2.4-.3,1.4-.7.3-.3.4-.4h.3c0-.1,1-.4,1-.4h.3c0-.1.2-.2.2-.2v-.2c.1,0,.2-.1.2-.1v-.7c.1,0,.2-.3.2-.3v-1c-.1,0,0-1.1,0-1.1v-1.6l.2-.5v-.2c.1,0,.3-.1.3-.1h.2c0-.1.4-.2.4-.2h.3c0,.1.2.1.2.1h.1c0,.1.1.2.1.2h.1v1.5c.1,0,.2.1.2.1h.3c0,.1.3.1.3.1h.2c0,.1.1.1.1.1h.1c0,.1.1.3.1.3h0c0,.1.1.3.1.3v.4h.1c0,.1.1.2.1.2h.4c0,.1.2.2.2.2l.2.2.8.4h.1c0,.1.1.2.1.2v.2c.1,0,.1.1.1.1v.8c-.1,0-.1.1-.1.1v.2l.3.6h0c0,.1.1.3.1.3h.2c0,.1.3.2.3.2h.2v-.2c.1,0,.1-.5.1-.5v-.2h.1c0-.1.1-.4.1-.4l.3-.4.5-.5h.1c0-.1.1-.4.1-.4l.5-2.1v-1.1c-.1,0,0-.2,0-.2v-.2c.1,0,.4-.4.4-.4h.2c0-.1.1-.1.1-.1l.2.2v.2h.8c0-.1.2-.3.2-.3h.2c0-.1.1-.2.1-.2h.1c0,.1.1.2.1.2l.4.6h.1c0,.1.2.1.2.1h.4c0,.1.3.3.3.3l.3.2h.4l2.6-1.1h.4c0-.1.1,0,.1,0h.1c0,.1.2.9.2.9h.1v.7h.1c0,.1.1.2.1.2l1.6,1.3.3.3h.1c0,.1.1.3.1.3v.2h0v.5c.1,0,.2.1.2.1h.3c0,.1.1.2.1.2h.1c0,.1.1.2.1.2v.2c.1,0,.2.2.2.2h.2c0,.1.2.2.2.2h.9c0,.1.5-.5.5-.5h.2c0-.1.3-.3.3-.3l1-.2h.3c0-.1.3-.1.3-.1l.9.6h.2c0,.1.4.2.4.2h.7c0,.1.4.1.4.1h.2c0-.1.3-.7.3-.7h0c0-.1.5-.5.5-.5l.5-.7h.1v-.3h0c0-.1-.1-.3-.1-.3h0v-.3l.4-.4h.4c0-.1.6-.3.6-.3h.6c0,.1.3.2.3.2h.5c0,.1.4,0,.4,0h.3c0,.1.2.1.2.1h.1c0,.1.2.5.2.5l.2.2.8.5.5.3h.1c0,.1.3.2.3.2h.4c0,.1.2.1.2.1h.2c0-.1.3-.3.3-.3l.3-.2h.1c0-.1.2-.3.2-.3h.1c0-.1.1-.2.1-.2l.2-.3.2-.3h.4c0,.1.2.2.2.2h0c0,.1.2.2.2.2h.2c0,.1.7.2.7.2h.6c0,.1.2,0,.2,0h.1c0-.1.1-.2.1-.2v-1.3c-.1,0-.2-.1-.2-.1l-.2-.3h0v-.3h0c0-.1.1-.3.1-.3v-.3c.1,0,.2-.1.2-.1v-.8c.1,0,.3-.2.3-.2h.2c0-.1.2-.1.2-.1h.1c0,.1.5.4.5.4l.4.2h.9l1,1.9.4.5.7.4.8.6.5.3.9.2h.3c0,.1.2.2.2.2h.9c0,.1.8.1.8.1h1.3c0-.1.7,0,.7,0l.8.8.5.5h0c0,.1.2.5.2.5v.3l.2.5v.5c-.1,0-.2.1-.2.1v.2c-.1,0-.2,1-.2,1v.2h-.1c0,.1-.1.3-.1.3h-.1c0,.1-.1.1-.1.1l-.5.2h-.1c0,.1-.2.2-.2.2v.2c-.1,0-.2.4-.2.4v.4c.1,0,.2.4.2.4l.2.8v.4c.1,0,.3.3.3.3l.4.2.3.3.3.5.2.2h.2c0,.1.6.1.6.1h.3c0,.1.3.1.3.1h.2c0-.1.6,0,.6,0h.3c0,.1.1.2.1.2l.3.2h.1c0,.1.2.1.2.1h.1v-.6c.1,0,.2-.1.2-.1h.1c0-.1.1-.2.1-.2h.1c0-.1.2-.1.2-.1h.2c0,.1,1.6,1.6,1.6,1.6v.2c.1,0,.2.2.2.2v.8c.1,0,.2.2.2.2h.3v.6c.1,0-.2.7-.2.7l-.3.6v.4c-.1,0-.2.3-.2.3l.3.7v.2c-.1,0-.2.1-.2.1h-.8c0-.1-.2-.1-.2-.1h-.4c0,.1-.3.2-.3.2l-.4.4-.2.2v.3c-.1,0-.4.7-.4.7l-.2.3-.4.4-.2.3v.2c-.1,0-.1.2-.1.2v.8c-.1,0-.5,1.8-.5,1.8v1.8c-.1,0-.2.3-.2.3v.3l-.6.7v.2c-.1,0-.1.2-.1.2l.5.8.2.2h.1c0,.1.1.2.1.2h.1c0,.1.2.1.2.1h.5l2.5-1.1h.7c0-.1.2,0,.2,0h.1c0,.1.2.2.2.2l.6.2,1.2.3h.3c0,.1.2.3.2.3l.2.2.3.2,1.6.6h.3c0,.1.1.2.1.2v.2c.1,0,.1.1.1.1v.2c.1,0,.2.1.2.1h.2c0,.1.2.4.2.4l.2.2h.2c0,.1.3.3.3.3l1.1.7h.3c0,.1.2.1.2.1l.3-.2h.3c0-.1.1,0,.1,0v.2c.1,0,.1.3.1.3v.2c.1,0,.2.2.2.2l.2.2h.5c0-.1.2-.2.2-.2h.5c0,.1.1.2.1.2v.7c.1,0,.1.1.1.1v.2c.1,0,.3.3.3.3l.3.5.8.7v.2c.1,0,.2.2.2.2h0v.6c-.1,0,0,.2,0,.2v.2l.5.5.2.3.4,1v.2c.1,0,.3.2.3.2l.3.3h.2c0,.1.1,0,.1,0v-.2c.1,0,0-1,0-1h.1v-.3h.1c0-.1.1-.2.1-.2h.2c0-.1.2-.3.2-.3l.2-.4v-.3c.1,0,.2-.5.2-.5v-.4h0c0-.1-.4-1.4-.4-1.4l-.4-.7h0c0-.1-.1-.3-.1-.3h0v-1c.1,0,.1-.2.1-.2v-.9c-.1,0-.2-.1-.2-.1h-.1c0-.1-.1-.2-.1-.2h-.3c0-.1-.1-.2-.1-.2v-.2c-.1,0-.2-.1-.2-.1h0c0-.1-.1-.5-.1-.5v-.4l.2-1v-.2c.1,0,.2-.1.2-.1l.2-.2h.1c0-.1.1-.4.1-.4h.1c0-.1.1-.3.1-.3v-1.4c-.1,0-.1-.2-.1-.2l-.2-.9v-.2h.5c0,.1.2.2.2.2h.1c0,.1.1.2.1.2h.1c0,.1.1.2.1.2h.2l3.4.2h.6c0,.1.3.2.3.2h.2c0,.1-.1.2-.1.2h-.4c0,.1-.3.4-.3.4l-1,1.3-.4.7v.8c-.1,0,.3,1.5.3,1.5l1.7,4.2-.2,1.2-1-.6-.8,1.3-.5,2.1-.2,1.5v1.7c.1,0,0,.9,0,.9h-.8l-.4.6-.4.8-.2.6v.9l.3.8,1.8,3.9v.6c.1,0,.9,1.1.9,1.1l1.6,1.5,1.1,1.6-.7,1.4,1.6-.4-2.2,4.8-.3,1.9.8,5.8.3.9.2.9-1,11.2.3,1.9,1.5,3.3,2.2,2.9,5.5,5.4v.3c-.1,0-.5.7-.5.7h-.1c0,.1-1,.6-1,.6l-.2.2v.2h.1c0,.1.1.2.1.2l.3.2h.2c0,.1.1.2.1.2v.2c.1,0,.2.1.2.1v.2c.1,0,.1.1.1.1v.5c-.1,0-.2.1-.2.1v.2c-.1,0-.2.1-.2.1h-.1c0,.1-.1.3-.1.3h-.1v.3l.3.6h0c0,.1-.1.2-.1.2l-.3.4h-.1c0,.1-.1.4-.1.4h0v.2h0c0,.1.1.2.1.2h.1c0,.1.1.2.1.2h.4c0,.1.2.1.2.1h.1c0,.1.2.4.2.4l.2.3v.2c.1,0,.1.3.1.3v.2c.1,0,0,.3,0,.3v.2h0c0,.1-.5.8-.5.8h-.1c0,.1-.1.2-.1.2h0c0,.1.1.3.1.3v.2h-.2c0,.1-.4,0-.4,0l-6.6-3.9h-.1c0-.1-.2-.5-.2-.5l-.4-.4-.3-.2-2.6-1-.6-.4-.5-.3h-.7l-1.9.4-7,2.6h-.4c0-.1-7.3-3.1-7.3-3.1l-1.6-1.3-6.6-7.9-.6-.4-2.5-1-2-.7-.5-2.1-.3-.5h-.2c0,.1-.1.2-.1.2h-.1c0,.1-.2.1-.2.1h-.3c0-.1-9.3-6.5-9.3-6.5l-1.4-1.8h-.1c0-.1-1.8-2.1-1.8-2.1l-.3-.2-3.6-.6h-.3l-5.8-1.9-1.9-.9h-.4c0-.1-.3-.2-.3-.2v.2h-.1c0,.1-.2.1-.2.1h-.5c0,.1-.1.2-.1.2h-.2c0,.1-.3.3-.3.3l-.5.2h-.4c0,.1-.2.1-.2.1h-.2v-.4c-.1,0-.1-.5-.1-.5v-.4h-.1c0-.1-.2-.6-.2-.6v-.2c-.1,0-.3-.3-.3-.3h-.2c0-.1-.2-.1-.2-.1h-1.7c0-.1-.2-.1-.2-.1l-.2-.2h-.1c0-.1-.2-.2-.2-.2l-.3-.2h-.1c0-.1-.1-.2-.1-.2h0v-.3l-.2-.3-.3-.3-.9-.6-.4-.2h-.3c0-.1-.1,0-.1,0v.4c-.1,0-.1.1-.1.1h-.1c0,.1-.1.2-.1.2h-.2c0,.1-.2.3-.2.3l-1.2-.2h-.3l-1.7-.9h-.5c0-.1-.1-.2-.1-.2h-.2l-3-3.9.5-1.3.4-.7v-.2c.1,0,.1-.3.1-.3l-.4-1.5h0c0-.1-.1-.4-.1-.4l-.3-.5v-.2c-.1,0-.2-.1-.2-.1v-.7l.2-.4.8-1.5h.1c0-.1.2-.2.2-.2h.3c0-.1.1-.2.1-.2h.1c0-.1.1-.2.1-.2v-.2c.1,0,.4-1.4.4-1.4v-.4c-.1,0-.5-.7-.5-.7l-.7-1-.2-.4v-.2h0c0-.1-.1-.3-.1-.3l-.2-.2h-.1c0-.1-.2-.6-.2-.6l-.3-.2-1.5-.9-.9-.4h-1c0-.1-.8-.5-.8-.5h-.3c0-.1-.6-.7-.6-.7l-1.3-2-.4-.7-.4-.2h-.4c0-.1-.1-.3-.1-.3v-.4l.2-2v-.8c-.1,0-.2-.4-.2-.4l-.4-.5-.2-.2-.2-.8-.3-3.4v-.4c-.1,0-.6-.5-.6-.5h0v-1c.1,0,1.1-2.8,1.1-2.8l-1.2-1.6-.4-.4h-.2c0-.1-.3-.3-.3-.3h-.2c0-.1-.1,0-.1,0l-.4.2h-.1l-.2-.3-.2-.6-.3-1.2v-.8l.2-.3h0v-.2l-.3-.2h-.4c0-.1-.1-.2-.1-.2h-.7c0-.1-.4-.3-.4-.3h-.2c0-.1-.1-.3-.1-.3v-.7c.1,0,.1-.3.1-.3v-.2c.1,0,.1-.2.1-.2v-.2l-.3-.3h-.1c0-.1-.3-.7-.3-.7v-1.9c-.1,0-.2-.5-.2-.5h-.2c0-.1-.3-.3-.3-.3l-.2-.2v-.2c-.1,0,0-.2,0-.2h.1c0-.1.1-.3.1-.3l.2-.4h0c0-.1.2-.4.2-.4h0v-.5c-.1,0-.2-.1-.2-.1h-.2c0-.1-.5-.2-.5-.2l-2.2-.6h-.3c0,.1-.2,0-.2,0l-.2-.2-.5-.7-.6-.4.4-.7.3-.3h0c0-.1.2-.3.2-.3v-.2c0,0,.2-.4.2-.4l.4-.9h0c0-.1.2-.2.2-.2h0v-.2c0,0,0-.3,0-.3l-.2-.4-.5-.5h0v-.2l-.3-1v-1.1c0,0,.7-1.8.7-1.8h0Z"/>
    <path id="MY11" class="st0" d="M185.1,135.6l.2-.7v-.3l-.4-1v-.2c-.1,0-.3-.2-.3-.2l-.2-.3v-.4c-.1,0-.2-.7-.2-.7v-.2c-.1,0-.2-.2-.2-.2h-.4c0-.1-.2-.1-.2-.1l-2.3-1.7-1.1-.5h-.6c0,.1-.1.2-.1.2h-.1c0,.1-.3.1-.3.1l-.5-.2-.2-.2v-1.5c.1,0,0-.7,0-.7l-.4-1.3v-.4c-.1,0-.1-.2-.1-.2h0v-.2h0c0,0,.1-.3.1-.3h.3c0,0,.1-.2.1-.2h.1v-.4l-.5-2.2v-.3h.1c0,0,.1-.2.1-.2h.3c0,0,.2,0,.2,0v-.2h.1v-.3h.1c0,0,.2-.4.2-.4v-.2c.1,0,0,0,0,0l-.4-.3-.4-.5h-.2c0,0-.1-.2-.1-.2h-.2l-.2-.2h-.2c0,0-.6-.9-.6-.9h-.2l-.3-.2-.2-.2h-.2c0,0-.2-.2-.2-.2h-.5c0,0-.2-.3-.2-.3h-.2l-.6-.2h-.3c0,0-.1-.3-.1-.3v-.2l.3-.8v-.5c.1,0,0-.2,0-.2v-.7c-.1,0,0-2.7,0-2.7l.2-1v-.2l.6-1.2.2-1.1v-.5c-.1,0-.3-.2-.3-.2l-1-.8-.8-1v-.2c-.1,0,0-.2,0-.2h.1v-.5c.1,0,.1-.7.1-.7l-.3-2.8v-.4l.4-.3h.1v-3.6c.1,0,.1-.2.1-.2l-.2-.5v-.3c-.1,0-.7-2.6-.7-2.6l.2-.6,1.6-1.7,3.6-3.3,1.7-2.1h.1c0,0,.4.2.4.2l2.4,1.5,1.1.9.9,1.1.6,1.5.5.7,1.2.6,8.3,6.6,2,.9,1.9.4.8.5,2.4,2.2,4.3,4.8,4.7,7.5,1.6,3.9,4.6,7.7,2.7,5,.3.9.2.3.8,1,.2.4v.6c.1,0-.3,1.3-.3,1.3v1.1c.1,0,.5,1.9.5,1.9l.8,7v1.1l-.5.9-.3.9.6,2.1v.7c-.1,0,1.4,4.3,1.4,4.3v1.4c.1,0,0,.5,0,.5l-.7,1.6-.3.6-.3.2-.7.8-.2.4v.4c.1,0,.4,1.2.4,1.2l-.3.5h-.3c0,.1-.2,0-.2,0h-.3c0-.1-.6-.2-.6-.2l-3.4-.2h-.3c0-.1-.1-.2-.1-.2h-.1c0-.1-.1-.2-.1-.2h-.2c0-.1-.4-.2-.4-.2h-.1v.2l.2.9v.9c.1,0,.1.3.1.3v.6c-.1,0-.2.1-.2.1v.3c-.1,0-.2.1-.2.1l-.2.2h-.1c0,.1-.1.3-.1.3l-.2,1v.8c.1,0,.1.1.1.1h.1c0,.1.1.3.1.3h.1c0,.1.3.2.3.2h.1c0,.1.1.2.1.2h.1c0,.1.1.4.1.4v1.1c-.1,0-.1.4-.1.4v.2h0c0,.1.1.3.1.3h0c0,.1.4.8.4.8l.4,1.3h0v1c-.1,0-.2.3-.2.3l-.2.4-.2.2h-.2c0,.1-.1.2-.1.2h-.1v.3h-.1c0,.1.2,1.1.2,1.1v.2c-.1,0-.2.1-.2.1h-.2c0-.1-.3-.4-.3-.4l-.2-.2v-.2c-.1,0-.5-1-.5-1l-.2-.3-.5-.5v-.4c-.1,0,0-.3,0-.3v-.2h0c0-.1-.1-.3-.1-.3v-.2c-.1,0-.9-.7-.9-.7l-.3-.5-.2-.3v-.2c-.1,0-.1-.1-.1-.1v-.7c-.1,0-.2-.1-.2-.1h-.2c0-.1-.3-.1-.3-.1h-.2c0,.1-.2.2-.2.2h-.3l-.2-.2v-.2c-.1,0-.2-.2-.2-.2v-.5c-.1,0-.2-.1-.2-.1h-.3c0,.1-.3.3-.3.3h-.5c0-.1-1.1-.8-1.1-.8l-.3-.2h-.2c0-.1-.2-.3-.2-.3l-.2-.3h-.1c0-.1-.1-.1-.1-.1h-.1c0-.1-.1-.3-.1-.3h0c0-.1-.1-.3-.1-.3h-.1c0-.1-.1-.2-.1-.2h-.2l-1.6-.6-.3-.2-.2-.2-.2-.2h-.3c0-.1-1.2-.4-1.2-.4l-.6-.2h-.2c0-.1-.1-.2-.1-.2l-.2-.2h-.7c0,.1-2.5,1.2-2.5,1.2h-.8c0-.1-.1-.2-.1-.2h-.1c0-.1-.2-.3-.2-.3l-.5-.8v-.4c.1,0,.7-.7.7-.7v-.6c.1,0,.2-.6.2-.6v-1.2l.4-1.8v-.8c.1,0,.1-.2.1-.2v-.2c.1,0,.3-.3.3-.3l.4-.4.2-.3.3-.7v-.3c.1,0,.3-.2.3-.2l.4-.4h.3c0-.1.2-.2.2-.2h.8c0,.1.1.1.1.1h.4c0-.1.1-.3.1-.3l-.3-.7v-.3c.1,0,.2-.4.2-.4l.3-.6.3-.7v-.6h-.4v-.2c-.1,0-.2-.3-.2-.3v-.7c-.1,0-.2-.2-.2-.2l-1.6-1.5h-.2c0-.1-.2-.1-.2-.1h-.1c0,.1-.1.2-.1.2h-.1c0,.1-.1.2-.1.2v.4c-.1,0-.1.1-.1.1h-.1c0,.1-.2.1-.2.1h-.1c0-.1-.3-.3-.3-.3h-.1c0-.1-.2-.2-.2-.2h-.7c0-.1-.2,0-.2,0h-.5c0-.1-.1-.1-.1-.1h-.8c0-.1-.2-.3-.2-.3l-.3-.5-.3-.3-.4-.2-.2-.3v-.4c-.1,0-.3-.8-.3-.8v-.4c-.1,0-.2-.4-.2-.4v-.4c.1,0,.2-.2.2-.2h.2c0-.1.1-.2.1-.2l.5-.2h.2c0-.1.1-.3.1-.3h.1v-1.3c.1,0,.2-.2.2-.2h.1c0-.1.1-.3.1-.3v-.3l-.2-.5v-.3l-.2-.4h0c0-.1-.5-.6-.5-.6l-.8-.8-.7-.2h-1.3c0,.1-.8.1-.8.1h-.9c0-.1-.2-.2-.2-.2h-.3c0-.1-.9-.3-.9-.3l-.5-.3-.8-.6-.7-.4-.4-.5-1-1.9h0Z"/>
    <path id="MY15" class="st0" d="M768,107.8l.5,2.4v1.1l-.9.9h-.4c0,0-.9-.6-.9-.6h-.4l-.9.8-1.2.7v-.7c0,0,1.4-3.6,1.4-3.6l.4-.5,1.3-1.2.7-.3.4,1h0Z"/>
    <path id="MY14" class="st0" d="M141.4,208.1h.3c0-.1.2-.2.2-.2l.5-.2h.2c0-.1.1,0,.1,0v.2c.1,0,.3.2.3.2l.2.5.2.4v.2c.1,0,.1.3.1.3v.4c-.1,0-.4.2-.4.2v.2c-.1,0-.2.7-.2.7v.2l-.2.2h-.1c0,.1-.1.4-.1.4v.5c.1,0,.3.9.3.9l.2,1.8v.3h-.1c0,.1-.1.3-.1.3h-.5c0,.1-.1.2-.1.2v.3c-.1,0-.2.2-.2.2h-.1c0,.1-.1.1-.1.1v-.2c-.1,0-.2-.2-.2-.2h-.2c0-.1-.3-.1-.3-.1h-1.3c0,.1-.3.1-.3.1h-.5c0-.1-.2-.2-.2-.2v-.5c-.1,0-.2-.3-.2-.3v-.4h.1c0-.1.3-.5.3-.5h0v-.7c-.1,0-.2-.1-.2-.1h-.1v-.2h-.1v-.7c-.1,0-.3-.2-.3-.2l-.6-.3h-.1c0-.1-.1-.3-.1-.3h-.1c0-.1-.2-.4-.2-.4v-.2c-.1,0-.2-1.6-.2-1.6v-.2l.6-1.1.2-.3h.1v-.2l.6-.3.3-.2h.1c0-.1.1-.2.1-.2h.4c0,.1.5.7.5.7l1.1.5h.4Z"/>
    <path id="MY16" class="st0" d="M139.7,223.5h-.2c0-.1-.2-.2-.2-.2l-.2-.4v-.7c.1,0,.3-.2.3-.2v-.2c.1,0,.2-.1.2-.1v-.3l-.2-.7v-.3h.2v-.4l-.2-.2v-.3c-.1,0,0-.3,0-.3h.3c0-.1.7-.2.7-.2l.2-.2h.2l.4-.3v.9c.1,0,.5.3.5.3l.3.5v.8l-.9,1.1-.2.4-.2.3-.6.6h-.4q0,.1,0,.1Z"/>
  </g>
  <g id="points">
    <rect id="_x30_" class="st0" x="90.9" y="302.2"/>
    <rect id="_x31_" class="st0" x="545.5" y="181.6"/>
    <rect id="_x32_" class="st0" x="909.1" y="30.3"/>
  </g>
  <g id="label_points">
    <rect id="MY121" data-name="MY12" class="st0" x="839.8" y="111.7"/>
    <rect id="MY091" data-name="MY09" class="st0" x="73.4" y="55.2"/>
    <rect id="MY021" data-name="MY02" class="st0" x="93.7" y="80.9"/>
    <rect id="MY031" data-name="MY03" class="st0" x="156.5" y="118.5"/>
    <rect id="MY081" data-name="MY08" class="st0" x="108.6" y="128.6"/>
    <rect id="MY131" data-name="MY13" class="st0" x="698.6" y="239.9"/>
    <rect id="MY071" data-name="MY07" class="st0" x="83.1" y="106.1"/>
    <rect id="MY101" data-name="MY10" class="st0" x="131.5" y="198.2"/>
    <rect id="MY051" data-name="MY05" class="st0" x="164.6" y="226.1"/>
    <rect id="MY041" data-name="MY04" class="st0" x="170.3" y="249.2"/>
    <rect id="MY011" data-name="MY01" class="st0" x="219.2" y="262.2"/>
    <rect id="MY061" data-name="MY06" class="st0" x="174.6" y="183.5"/>
    <rect id="MY111" data-name="MY11" class="st0" x="196.7" y="122"/>
    <rect id="MY151" data-name="MY15" class="st0" x="766.6" y="109.9"/>
    <rect id="MY141" data-name="MY14" class="st0" x="140.3" y="210.9"/>
    <rect id="MY161" data-name="MY16" class="st0" x="140.6" y="220.8"/>
  </g>
</svg>